<svg xmlns="http://www.w3.org/2000/svg" aria-hidden="true" style="position:absolute;width:0;height:0;overflow:hidden">
  <defs>
    <symbol id="icon-Cake" viewBox="0 0 37 32">
      <path d="M0 0h36.571v32H0V0z"/>
    </symbol>
    <symbol id="icon-Daimler" viewBox="0 0 253 32">
      <path d="M3.358 2.47H1.119C.839.527.979.111 7.557.111h9.238c13.156 0 18.755 5.828 18.755 15.542 0 9.297-5.319 15.542-18.335 15.542H.14a3.927 3.927 0 0 1 0-1.804c4.899-.278 5.738-.555 5.738-3.608V4.413c0-1.665-.56-1.943-2.519-1.943zm26.173 14.016c0-8.604-4.479-13.738-13.296-13.738h-4.759v22.619c0 2.775.98 3.192 5.179 3.192 7.838.139 12.877-2.359 12.877-12.073zM57.524.389c.14.971.42 1.804 1.12 3.33l10.497 23.729c.56 1.11.98 1.526 3.359 1.526h.98c.28 1.249 0 2.081-1.12 2.081H57.664c-.14-.416-.14-1.11 0-1.804 4.899-.139 5.459-.555 4.899-1.665l-2.799-6.8H48.007l-1.819 4.857c-.98 2.637-.98 3.331 1.4 3.331h3.919c.28 1.249 0 2.081-1.12 2.081H37.371c-.14-.416-.14-1.11 0-1.804 3.499-.416 3.919-.694 5.179-3.608l8.957-21.092c1.54-3.469 2.1-4.163 4.199-4.163h1.819zm1.119 18.04L53.744 6.773l-4.759 11.656h9.657zM91.535.945c.14.416.14 1.249 0 1.804-3.919.278-4.479 1.11-4.479 3.053v21.37c0 1.527.42 1.943 2.379 1.943h2.519c.28 1.249.14 2.082-1.12 2.082H76.978c-.14-.416-.14-1.11 0-1.804 3.639-.555 4.479-.971 4.479-2.914V4.97c0-1.665-.42-1.943-2.519-1.943h-2.239c-.28-1.11 0-2.082 1.959-2.082h12.877zM143.882.945c.14.555.14 1.11 0 1.804-4.199.278-4.479.971-4.339 2.359l2.239 22.064c.14 1.388.84 1.527 4.339 2.082.14 1.249 0 2.082-1.26 2.082h-16.095c-.14-.555-.14-1.11 0-1.804l2.519-.139c3.779-.277 4.479-.694 4.199-2.914l-2.099-19.844-10.917 22.758c-.84 1.665-1.12 1.943-2.239 1.943L107.632 6.774l-1.4 20.26c-.14 1.804-.14 2.22 4.619 2.22h2.519c.28 1.249.14 2.082-1.12 2.082H97.274c-.14-.555-.14-1.11 0-1.804 5.039-.278 5.459-1.11 5.599-3.053l1.819-21.231c.14-1.388-.14-1.943-4.619-2.082-.28-.971 0-2.082 1.959-2.082h9.238l11.477 21.648 10.497-21.648h10.637V.945zM168.933.945c.14.416.14 1.249 0 1.804-4.759.278-5.738.694-5.738 3.608v19.982c0 1.526.839 1.943 2.099 1.943h2.939c3.359 0 3.778-.278 5.737-4.302l1.26-2.775c1.261 0 1.96.555 1.541 1.943-.98 2.637-1.821 5.273-2.38 8.049h-22.254c-.14-.555-.14-1.11 0-1.804 4.479-.278 5.459-.833 5.459-3.747V4.97c0-1.665-.56-1.943-2.519-1.943h-2.239c-.28-1.11 0-2.082 1.959-2.082h14.136zM205.885.944c.14 2.082.421 4.163.701 6.106.28 1.388-.28 2.22-1.819 2.082l-.421-2.082c-.839-2.775-1.679-3.469-4.197-3.469h-7.279v11.518h4.76c1.4 0 1.679-.416 1.819-1.665l.28-2.359h.561c.839 0 1.4.278 1.258 1.665a93.935 93.935 0 0 0 0 8.881c-.419.139-1.118.278-1.538 0-.561-3.469-1.12-3.885-2.38-3.885h-4.76v7.91c0 1.665.419 2.359 3.498 2.359h3.921c3.358 0 3.778-.278 5.736-4.302l1.261-2.775c1.26 0 1.959.555 1.539 1.943-.98 2.637-1.821 5.273-2.38 8.049h-25.053c-.14-.555-.14-1.11 0-1.804 4.758-.277 5.738-.555 5.738-3.608V4.693c0-1.665-.421-1.943-2.52-1.943h-2.24c-.14-1.11 0-2.082 1.96-2.082h21.553v.278zM217.081 3.026h-2.238c-.28-1.11 0-2.082 1.819-2.22 2.24-.139 4.899-.139 11.338-.139 8.677 0 13.576 4.163 13.576 10.269 0 3.747-2.38 6.8-6.159 8.465 0 0 3.36 3.053 5.179 4.441 6.018 4.718 7.978 5.134 11.897 5.134.419 1.526-.701 2.775-5.6 2.775-4.197 0-6.996-.971-10.356-3.747-1.539-1.249-3.079-3.053-4.339-5.134-1.12-2.082-1.26-2.22-4.059-2.22h-2.799v6.661c0 1.249.419 1.804 2.799 1.804h2.38c.14 1.249 0 2.082-1.26 2.082h-14.277c-.14-.555-.14-1.11 0-1.804 3.919-.278 4.899-.694 4.899-3.469V5.109c-.28-1.804-.839-2.082-2.801-2.082zm10.358 15.125c4.48 0 8.118-.694 8.118-6.8s-3.638-8.048-8.819-8.048h-1.398v14.848h2.099z"/>
    </symbol>
    <symbol id="icon-Developers" viewBox="0 0 35 32">
      <path d="M0 0h34.506v32H0V0z"/>
    </symbol>
    <symbol id="icon-Documents" viewBox="0 0 43 32">
      <path d="M0 0h42.667v32H0V0z"/>
    </symbol>
    <symbol id="icon-Games" viewBox="0 0 43 32">
      <path d="M0 0h42.667v32H0V0z"/>
    </symbol>
    <symbol id="icon-HIGHEST-RATED" viewBox="0 0 130 32">
      <path d="M36.74 21.933c-.571.342-1.826.571-2.738.456-4.336 0-6.047-3.423-6.047-7.074 0-3.195 1.255-6.275 5.134-6.275 1.369 0 2.054.342 2.282 1.141l.342 1.483c.114.228.228.342.456.342h1.027a.49.49 0 0 0 .456-.456V7.785c0-.228-.228-.456-.342-.571-1.027-.228-2.624-.456-3.423-.456-5.591 0-9.698 3.537-9.698 9.128 0 5.249 3.879 9.128 9.356 9.128 1.826 0 3.537-.456 4.336-.799.228-.114.228-.342.228-.571-.456 0-.799-1.369-.799-1.369-.114-.228-.342-.456-.57-.342zm8.671.799c1.369 0 2.282-1.027 2.282-2.054l-.114-2.054c0-.114 0-.228-.228-.228-2.967 0-3.993 1.027-3.993 2.51-.114 1.027.799 1.826 2.054 1.826zm7.302.228c0-.228-.228-.342-.456-.342-.228.114-.456.114-.685.114-.571 0-.685-.342-.685-.799v-6.047c0-3.537-2.168-4.906-5.363-4.906-1.597 0-3.309.342-4.45.799-.228.114-.342.342-.228.57l.342 1.597c.114.342.342.342.57.228.799-.456 1.826-.685 2.852-.685 1.711 0 2.966.685 2.966 2.168v.456c0 .228-.114.456-.228.456-3.993 0-7.302 1.255-7.302 4.906 0 2.054 1.483 3.651 3.879 3.651 2.168 0 3.195-.913 3.993-1.826h.114c.114 1.027.685 1.826 2.168 1.826.799 0 2.168-.228 2.396-.456.228-.114.228-.228.228-.456l-.114-1.255zm8.786-9.356c-1.369 0-2.396.799-2.396 2.054v5.249c0 1.141.799 1.826 2.168 1.826 2.51 0 3.423-2.51 3.423-4.792-.114-2.168-1.027-4.336-3.195-4.336zm-.342 16.202a.49.49 0 0 0 .456-.456v-.685c0-.228-.114-.456-.342-.456l-1.597-.228c-.228-.114-.57-.342-.57-.799V24.33h.57c.342 0 .57.114.913.114 5.02 0 7.53-3.081 7.53-7.53 0-3.651-2.168-6.161-5.249-6.161-2.054 0-3.195 1.027-4.108 2.054h-.114l-.228-1.255c0-.228-.228-.571-.57-.456l-4.222.456a.49.49 0 0 0-.456.456v.685c0 .228.114.342.342.456l1.255.228c.456.114.57.57.57.799v13.349c0 .57-.228.799-.57.799l-1.027.342c-.228.114-.342.228-.342.456v.685a.49.49 0 0 0 .456.456l7.302-.456zm17.114-7.531c.342 0 .57.114.57.342l.456 1.369c0 .342 0 .456-.228.57-.799.456-2.282.685-3.309.685-2.624 0-4.45-1.483-4.45-4.108v-6.846c0-.228-.114-.342-.342-.342h-1.826c-.228 0-.228-.114-.228-.342l.114-1.483s.114-.228.228-.228h1.483c.342 0 .342-.228.342-.456V9.725c0-.342.114-.57.456-.685l2.51-.799c.342-.114.456.114.456.456v2.738c0 .114.114.342.342.342h3.309c.114 0 .228.114.228.228v1.597s-.114.228-.228.228h-3.309c-.228 0-.456.114-.456.342v6.161c0 1.483.799 2.396 2.282 2.396.456-.114 1.027-.228 1.597-.456zm10.041-7.416c0 1.826-1.826 2.396-3.537 2.396-.456 0-.799 0-1.027-.114-.228 0-.342-.114-.342-.342-.114-1.711.799-3.994 2.853-3.994 1.255 0 2.054.913 2.054 2.054zm2.282 6.96c.228-.228.457 0 .571.228l.114 1.369c.114.228 0 .456-.228.57-1.027.685-2.624 1.027-4.107 1.027-4.564 0-6.96-2.852-6.96-7.074 0-3.993 3.081-6.96 6.846-6.96 2.51 0 5.021 1.369 5.021 3.993 0 3.081-3.195 4.222-5.933 4.222h-1.826c-.228 0-.342.114-.342.342.228 2.054 2.282 3.309 3.993 3.309 1.255 0 2.168-.456 2.852-.799v-.228zm10.269 2.967a.49.49 0 0 0 .456-.456v-.685c0-.228-.113-.342-.342-.456l-1.597-.228c-.228 0-.571-.342-.571-.799v-5.933c0-1.369 1.141-2.168 2.397-2.168.57 0 1.141.114 1.597.228.228.114.571-.114.571-.228l.571-2.396c.114-.342 0-.57-.228-.57-.343-.228-.799-.228-1.141-.228-1.712 0-2.853 1.141-3.88 2.51h-.114l-.228-1.826c0-.342-.227-.571-.456-.571l-4.222.571c-.227 0-.456.228-.456.456v.685c0 .228.114.342.342.456l1.256.228c.456.114.57.57.57.799v8.215c0 .571-.228.799-.57.799l-1.142.228c-.227.114-.342.228-.342.456v.685a.49.49 0 0 0 .456.456h7.075v-.228zm11.98-.457a.49.49 0 0 1-.457.456h-7.074c-.228 0-.457-.228-.457-.456v-.685c0-.228.114-.342.343-.456l1.141-.228c.343 0 .571-.342.571-.799v-8.215c0-.342-.114-.685-.571-.799l-1.255-.228c-.228-.114-.343-.228-.343-.456v-.685a.49.49 0 0 1 .457-.456l4.221-.57c.228 0 .457.228.457.57l.228 2.054h.114c1.027-1.369 2.281-2.51 3.879-2.51.343 0 .799 0 1.141.228.228 0 .343.228.228.57l-.57 2.396c0 .114-.343.342-.571.228-.457-.114-1.027-.228-1.597-.228-1.255 0-2.396.799-2.396 2.168v5.933c0 .57.342.799.57.799l1.597.228c.228.114.343.228.343.456v.685zm11.752-3.651c0 1.027-.798 2.054-2.281 2.054-1.141 0-2.168-.799-2.168-1.94 0-1.483 1.027-2.51 3.994-2.51.228 0 .228.114.228.228l.227 2.168zm4.564 1.94c.228 0 .457.114.457.342l.228 1.369c0 .228 0 .342-.228.456-.343.228-1.597.456-2.396.456-1.369 0-2.054-.685-2.168-1.826h-.114c-.798.799-1.94 1.826-3.993 1.826-2.397 0-3.88-1.597-3.88-3.651 0-3.651 3.309-4.906 7.303-4.906.113 0 .227-.228.227-.456v-.57c0-1.597-1.255-2.168-2.966-2.168-1.027 0-2.167.342-2.852.685-.228.114-.457.114-.571-.228l-.342-1.597c-.114-.228 0-.456.228-.57 1.141-.57 2.852-.799 4.45-.799 3.195 0 5.362 1.369 5.362 4.906v6.047c0 .571.228.799.799.799 0 0 .228 0 .456-.114zM5.249 15.087H.685c-.114 0-.228-.114-.114-.114-.114 0-.114-.114-.114-.228l.114-.571c.114-.228.114-.342.114-.342 0-.114.114-.228.114-.342 0-.228.114-.456.228-.685C2.853 6.073 8.786.825 9.356.254c.342-.114.456-.114.685 0 6.275 5.591 8.671 11.182 8.9 14.262v.342c0 .114-.114.342-.342.342h-4.678c-.114 0-.342 0-.342-.228a4.121 4.121 0 0 0-3.993-3.195c-1.94 0-3.537 1.369-3.993 3.195-.114 0-.114.114-.342.114zm8.443 1.826h4.678s.228 0 0 .114c.114 0 .114.114.114.228l-.114.57c-.114.114-.114.228-.114.228 0 .114-.114.228-.114.342 0 .228-.114.456-.228.685-1.94 6.732-7.873 12.094-8.443 12.665-.228.114-.342.114-.571 0C2.739 26.154.229 20.563 0 17.483v-.342c0-.114.114-.342.342-.342H5.02c.114 0 .342 0 .342.228a4.121 4.121 0 0 0 3.993 3.195c1.94 0 3.537-1.369 3.993-3.195 0 0 .114-.114.342-.114z"/>
    </symbol>
    <symbol id="icon-IoT" viewBox="0 0 43 32">
      <path d="M0 0h42.667v32H0V0z"/>
    </symbol>
    <symbol id="icon-Managers" viewBox="0 0 23 32">
      <path d="M0 0h23.085v32H0V0z"/>
    </symbol>
    <symbol id="icon-Marketing-e-mails" viewBox="0 0 43 32">
      <path d="M0 0h42.667v32H0V0z"/>
    </symbol>
    <symbol id="icon-Mobile-apps" viewBox="0 0 43 32">
      <path d="M0 0h42.667v32H0V0z"/>
    </symbol>
    <symbol id="icon-Revolut" viewBox="0 0 143 32">
      <path d="M0 15.761v15.748h6.246V18.671l4.787.151 3.674 6.324 3.648 6.324 3.597.038c1.946 0 3.558-.05 3.558-.126s-1.664-2.999-3.674-6.488c-2.035-3.49-3.725-6.4-3.776-6.488-.051-.101.563-.479 1.395-.894 1.907-.932 3.827-2.684 4.646-4.271 1.139-2.255 1.203-6.224.102-8.328C23.064 2.733 20.401.894 17.47.277c-.832-.176-4.506-.29-9.421-.29H-.002V15.76zm16.576-9.852c1.434.643 2.163 1.789 2.163 3.452 0 1.537-.653 2.721-1.869 3.376-.73.378-1.638.479-5.722.542l-4.89.101V5.367h4.621c3.981.025 4.762.101 5.696.542zM99.392 16.025v15.496h5.99V.529h-5.99v15.496zM132.48 15.042c.077 11.943.077 11.994.678 13.191.678 1.361 2.291 2.898 3.597 3.427.563.227 1.869.353 3.738.353h2.867v-5.115h-1.664c-1.267 0-1.792-.126-2.342-.542l-.678-.516V13.834h4.685V8.971h-4.685V3.075h-6.272l.077 11.969z"/>
      <path d="M33.51 8.945c-2.112.693-3.546 1.575-5.069 3.15-1.562 1.663-2.291 2.948-2.816 5.128-1.395 5.846 1.165 11.439 6.374 13.871 1.613.768 1.818.806 5.069.806 2.906 0 3.597-.076 4.89-.605 1.818-.718 4.25-2.822 5.21-4.561l.678-1.247-2.086-1.197c-1.139-.668-2.176-1.197-2.291-1.197-.102 0-.55.517-1.011 1.121-1.037 1.487-2.445 2.381-4.16 2.721-1.523.29-2.637.126-3.955-.542-1.562-.768-3.123-2.784-3.123-4.069 0-.516.102-.516 8.589-.516h8.589v-2.142c0-4.913-2.304-8.542-6.63-10.419-1.856-.857-6.157-.983-8.256-.302zm7.028 5.002A5.369 5.369 0 0 1 42.279 16l.678 1.31-5.773.076c-3.174.038-5.824 0-5.901-.076-.358-.353 1.51-2.646 2.816-3.414 1.331-.806 1.562-.844 3.418-.768 1.638.076 2.112.176 3.021.819zM80.691 8.857c-3.354.932-6.451 3.364-7.718 6.098-.909 2.003-1.306 5.077-.909 7.395 1.011 6.06 5.555 9.688 12.224 9.688 3.904 0 6.502-.932 9.024-3.15 1.459-1.31 2.445-2.948 3.085-5.153.55-1.877.422-6.06-.23-7.849-1.075-2.898-3.904-5.581-7.104-6.702-1.984-.718-6.362-.882-8.371-.328zm6.336 5.719c3.648 1.587 4.851 6.375 2.394 9.55-1.741 2.255-5.414 3.099-7.885 1.827-1.344-.718-2.816-2.306-3.226-3.54-.525-1.537-.218-4.271.602-5.468 1.843-2.747 5.043-3.666 8.115-2.369zM48.218 9.335c.077.176 2.163 5.254 4.634 11.263l4.506 10.935 5.658-.151 4.39-10.633c2.419-5.846 4.467-10.885 4.557-11.225l.166-.592-6.374.151-2.765 7.219c-1.51 3.968-2.829 7.143-2.906 7.042-.102-.101-1.382-3.376-2.867-7.294l-2.701-7.093H51.29c-2.598.025-3.187.101-3.072.378zM108.493 15.975c0 3.943.128 7.647.294 8.504.563 3.124 2.266 5.279 5.158 6.627 1.664.768 1.856.806 5.235.806 3.302 0 3.61-.05 5.069-.718 2.893-1.323 4.736-3.666 5.299-6.702.166-.844.294-4.561.294-8.504V8.996h-5.952l-.077 6.967c-.077 6.69-.102 7.043-.678 8.063-.832 1.537-2.24 2.205-4.339 2.079-1.869-.101-2.944-.731-3.674-2.179-.435-.869-.486-1.739-.563-7.975l-.077-6.967h-5.952v6.992h-.038z"/>
    </symbol>
    <symbol id="icon-Specialized" viewBox="0 0 83 32">
      <path d="M13.388 5.956c-.282-.236-.563-.236-.892.047-1.549.567-4.458 2.552-5.162 2.411 1.173-1.607 2.44-3.167 3.895-4.585.61-.851-.188-1.04-.282-1.513-.188-.614-.094-1.276.094-1.843.282-.473-.282-.567-.61-.378C6.63 4.065 3.392 8.036.389 12.054c-.469.614-.375 1.087-.047 1.465l1.595 2.032c.328.567.845.662 1.502.236l5.021-3.403c-2.018 3.309-3.942 7.043-5.396 11.58-.657 1.938 1.173 4.869 3.66 7.941.282.331.845 0 .469-.662-2.393-4.49-.422-11.439 7.274-21.696.375-.425.516-.851.235-1.276l-1.314-2.316zM33.191 11.864l.657-2.552c.141-.378.422-.567.798-.614h2.909l.375-1.182h-.985l-3.097.047c-.657-.047-1.173.189-1.502.945l-1.689 6.617-.657 2.6c-.188.567-.047 1.04.657 1.229.047 0 .141.047.188.047h3.942l.328-1.182h-3.003c-.235-.189-.422-.189-.328-.756l.704-2.789c.094-.331.282-.567.61-.567h2.299l.328-.993h-2.346c-.282-.189-.328-.473-.188-.851zM37.836 17.064c1.549-6.097.61-2.458 2.018-7.752.141-.378.422-.567.798-.614h2.862l.282-.945.094-.284h-4.083c-.657-.047-1.22.189-1.502.945l-1.408 5.53-.938 3.64c-.188.662-.047 1.134.845 1.276h3.942l.328-1.182h-3.003c-.141 0-.328-.047-.235-.614zM22.726 13.471l-2.253-1.985c-.469-.567 0-2.694.986-2.742h3.332l.282-1.134H20.85c-1.314.236-2.393 2.978-1.877 4.301l2.299 2.08c.328.378.375.709.375 1.087l-.657 2.269c-.141.567-.516.567-.985.567h-3.097l-.282 1.087h4.552c.704-.047 1.126-.473 1.22-1.182l.751-2.883c.188-.662-.047-1.134-.422-1.465zM30.328 13.14l.328-1.371.704-2.883c.094-.756-.141-1.182-.704-1.276-.094-.047-.188-.047-.282-.047h-4.458l-1.924 7.232-1.126 4.207h1.549l2.769-10.257h1.83c.375.095.61.284.61.662l-.751 3.12c-.094.52-.422.851-.985 1.04l-1.408.284-.235 1.087 3.05-.567c.516-.142.939-.52 1.032-1.229zM46.565 7.563h-1.83l-.938 3.45-1.032 3.829-1.126 4.16h1.83l.328-1.276 2.769-10.162zM62.801 7.563h-1.783l-3.144 11.439h1.83l1.971-7.185 1.126-4.254zM70.825 14.275c.094-.331.282-.567.61-.567h2.299l.328-.993h-2.393c-.281-.189-.328-.473-.188-.851l.704-2.552c.141-.378.422-.567.798-.614h2.91l.234-.756.141-.473h-4.035c-.657-.047-1.22.189-1.502.945l-1.69 6.617-.656 2.6c-.188.567-.047 1.04.656 1.229.047 0 .141.047.188.047h3.942l.328-1.182h-3.05c-.234-.189-.422-.189-.328-.756l.704-2.694zM82.37 7.563h-5.397l-.891 3.214-2.206 8.177h5.491c.797-.047 1.267-.473 1.454-1.276l2.44-9.123c.094-.567-.235-.945-.892-.993zm-1.08 2.079-2.018 7.09c-.046.567-.422.945-1.173.993h-1.924c-.047 0-.094 0-.141-.047-.188-.095-.188-.331-.094-.567l.094-.331 2.393-8.177h2.346c.61.047.704.425.516 1.04zM63.176 16.922l5.772-7.421.422-.567c.517-.756.329-1.323-.422-1.323h-5.302l-.047 1.04h3.238c.422 0 .657.189.376.567l-5.538 7.326-.938 1.229c-.375.567-.234.993.423 1.276h5.724l.329-1.276h-3.942c-.376-.095-.423-.567-.094-.851zM49.756 7.61l-5.96 11.25-.094.189h1.408l4.693-8.981.422.047.235 2.505c.188.614-.235.567-.375.567h-1.314l-.235.945 1.549.047c.282.047.422.189.375.473l.282 4.254h1.595L51.68 7.562l-1.924.047zM54.777 16.921l2.534-9.359h-1.83L52.759 17.63c-.047.567.188 1.182.938 1.371h3.613l.376-1.229-2.581-.047c-.329-.047-.469-.331-.329-.804z"/>
    </symbol>
    <symbol id="icon-stars" viewBox="0 0 205 32">
      <path d="m15.959 0-3.845 11.701H.001l9.998 7.465-3.845 11.903 9.806-7.465 9.998 7.465-3.845-11.903 9.806-7.465H19.806L15.96 0zM58.07 0l-3.845 11.701H41.919l9.806 7.465-3.653 11.903 9.998-7.465 9.806 7.465-3.846-11.903 9.998-7.465H61.723L58.07 0zM101.715 0 97.87 11.701H85.757l9.998 7.465-3.846 11.903 9.806-7.465 9.998 7.465-3.845-11.903 9.806-7.465h-12.113L101.716 0zM145.552 0l-3.653 11.701h-12.306l9.806 7.465-3.845 11.903 9.998-7.465 9.806 7.465-3.653-11.903 9.999-7.465h-12.306L145.552 0zM187.466 0l-3.846 11.701h-12.114l9.806 7.465-3.653 11.903 9.806-7.465 9.998 7.465-3.846-11.903 9.806-7.465h-12.306L187.464 0z"/>
    </symbol>
    <symbol id="icon-Tidal" viewBox="0 0 229 32">
      <path d="M83.971 30.389H78.28V10.245h-7.434V5.41h20.559v4.835h-7.434v20.144zM114.286 5.41h-5.808v24.978h5.808V5.41zM216.037 25.439h9.989v4.95h-15.797V5.411h5.809V25.44zM139.027 25.554h3.601c4.763 0 8.015-2.993 8.015-7.712 0-4.489-3.252-7.482-7.899-7.482h-3.717v15.194zM133.452 5.41h9.292c6.853 0 13.705 3.568 13.705 12.432 0 8.288-6.736 12.547-13.357 12.547h-9.64V5.411zM177.589 21.065l3.834-9.784 3.717 9.784h-7.55zm11.036 9.324h6.388L184.56 5.411h-5.925l-10.453 24.978h6.156l1.859-4.95h10.685l1.743 4.95zM24.89 1.772l-7.391 7.326 7.393 7.324 7.391-7.326-7.393-7.324z"/>
      <path d="m24.873 16.4-7.392 7.325 7.392 7.325 7.392-7.325-7.392-7.325zM10.133 1.754 2.741 9.079l7.392 7.325 7.392-7.325-7.392-7.325zM39.65 1.791l-7.391 7.326 7.393 7.324 7.391-7.326-7.393-7.324z"/>
    </symbol>
    <symbol id="icon-Translators" viewBox="0 0 31 32">
      <path d="M0 0h31.301v32H0V0z"/>
    </symbol>
    <symbol id="icon-USERS-LOVE-US" viewBox="0 0 38 32">
      <path d="m10.218 1.114-9.05 15.429h17.584l8.275 14.914 9.05-14.914-9.05-15.429H10.219z"/>
    </symbol>
    <symbol id="icon-Virqin" viewBox="0 0 43 32">
      <path d="M8.203 17.812v-.194c0-.038.039-.039.039-.077v-.233l-.039-.039v-.039c0-.077.039-.154.039-.27V16.844h.039c.039 0 .039-.039.039-.039 0-.039 0-.039.039-.077v-.039H8.32v-.039c0-.039 0-.039.039-.039l.039-.039V16.455l.039-.039v-.078c0-.039-.039 0-.039-.039v-.154c0-.039 0-.039.039-.077V15.72l.039-.039v-.155s0-.039.039-.039v-.31c0-.039 0-.077.039-.116 0-.039 0-.039.039-.077 0 0 0-.039.039-.039 0 0-.039 0-.039-.039l.039-.039v-.155l.039-.039v-.348h.039V13.586h.039v-.078s0-.039.039-.039v-.194l.039-.039v-.154l.077-.077v-.195c0-.039.039-.039.039-.039v-.27l.039-.039c0-.039.039-.039.039-.039h.078l.039-.039V11.996c0-.038.039-.039.039-.039V11.337l.039-.039v-.155s.039 0 .039-.039v-.078c0-.039.039-.077.077-.116s.039-.077.077-.116c.039-.039.039-.077.077-.154v-.078c0-.039 0-.039.039-.077 0-.039.039-.077.039-.116v-.154c0-.038.039-.039.039-.077v-.039l.039-.039c.039 0 .039-.039.039-.039 0-.039 0-.077.039-.116h.039v-.077c0-.039-.039-.039-.039-.077v-.155c0-.039.039-.039.039-.077V9.403s0-.039.039-.039l.039-.039v-.193c0-.038.039-.039.039-.077 0 0 .039-.077 0-.077v-.077c0-.039 0 0 .039 0 0 0 .039 0 0 0V8.785c0-.038.039-.077.039-.077V8.592c0-.038 0-.039.039-.077 0-.039 0-.039.039-.039s.039-.039.039-.077v-.155l.039-.039v-.078s0-.039.039-.039v-.039h.039v-.078l.039-.039v-.311s0-.039.039-.039v-.039c0-.039 0-.039.039-.077v-.039h.039v-.078h.039V7.117l.039-.039v-.077s0-.039.039-.039v-.039l.039-.039v-.039c0-.039 0-.039.039-.077l.039-.039c0-.039.077-.077.077-.116s.039-.039.039-.077v-.039s-.039 0 0-.039c0 0 .039-.039.039-.077.039-.039 0-.039.039-.077l.039-.039v-.193s.039-.039 0-.039c0-.039.039-.077.039-.077 0-.039.039-.039.039-.077s.039-.077.039-.116c0 0 0-.039.039-.039v-.039c0-.039.039-.039.039-.077v-.077c.039 0 0-.039.039-.039v-.039c0-.039.039-.039.039-.077v-.078h.039v-.039c0-.039 0-.039.039-.039v-.039c.039 0 .039-.116.077-.116.039-.077.077-.154.116-.27.039-.039.039-.116.077-.154 0 0 0-.039.039-.039v-.039c0-.039.039-.077.039-.077v-.039c0-.039 0-.039.039-.077s.039-.077.039-.116v-.078s0-.039.039-.039v-.039s0-.039.039-.039V4.02c0-.039.039-.039.039-.077v-.039c0-.039.039-.039.039-.077 0-.039.039-.039.039-.077 0 0 .039 0 .039-.039 0 0 0-.039.039-.039 0-.039 0-.116.039-.116v-.039l.039-.039c-.039-.039 0-.039.039-.077 0 0 .039 0 .039-.039v-.039c0-.039.039-.039.039-.077s0-.039.039-.077l.039-.039c0-.039.039-.039.039-.077a.539.539 0 0 0 .116-.154s0-.039.039-.039h.039s0-.039.039-.039c0-.039 0-.039.039-.039l.116-.116s0-.039.039-.039c0 0 .039 0 .039-.039V2.471l.039-.039v-.039h.039v-.039h.039v-.039h.039s.039-.039.039-.077h.077c.038 0 0-.039.039-.039h.039V2.082h.039v.078h.039v-.039l.039-.039v-.077h.039v-.039s.039 0 0 0v.039h.039v-.039h.078V1.81s.039.039.039 0V1.578l.039-.039h.039s-.039-.039 0-.039v-.039h.039V1.344l.077-.077v-.039s0-.039.039-.039V1.15l.039-.039V.182c0-.038 0-.039-.039-.039V-.09c0-.039-.039-.039-.039-.039v-.039l-.039-.039v-.039c0-.039-.039-.039-.039-.077v-.039l-.039-.039c-.039-.039-.039-.077-.077-.116l-.039-.039v-.039h-.039s-.039 0-.039-.039v-.039h-.078l-.039-.039h-.039s-.039 0-.039-.039c-.039 0-.039-.039-.077-.039s-.039 0-.077-.039H12.719l-.039-.039H12.063s-.039.039-.077.039c-.039 0-.039 0-.077.039-.039 0-.039.039-.077.039-.116.039-.231.154-.347.231.694.81.655.81.617.848v.039h-.039s-.039.039 0 .039c-.039 0-.039.039-.039.039 0 .039-.039 0-.039.039 0 0 0 .039-.039.039L11.869.6l-.077.077c-.038.038-.077.116-.116.154 0 .039-.039.077-.039.116-.039 0-.077.116-.116.154s-.039.116-.077.154-.077.231-.154.347c-.039.077-.039.116-.077.193s-.077.116-.077.193-.039.154-.077.231c-.039.077-.039.154-.077.193-.039.116-.116.231-.154.347-.039.077-.039.116-.077.193s-.039.116-.077.193-.077.27-.116.386c0 .039-.039.077-.077.116 0 .039-.039.116-.039.154-.039.077-.077.193-.116.27-.039.116-.077.231-.116.308-.039.154-.116.27-.154.424a.292.292 0 0 1-.077.154c0 .077-.039.116-.077.193s-.077.154-.077.231c-.039.077-.039.193-.077.27-.039.116-.077.193-.116.308s-.077.27-.116.386a8.569 8.569 0 0 0-.308.925c0 .039 0 .039-.039.077 0 .039 0 .039-.039.077 0 .039-.039.039-.039.077-.039.039-.039.039-.039.077 0 .077-.039.116-.039.193 0 .116-.039.154-.077.27 0 .039-.039.077-.039.154-.039.077-.116.154-.116.27 0 .077-.039.116-.077.193 0 .077-.039.116-.039.193 0 .039-.039.116-.039.154-.039.039-.039.116-.077.154-.039.077 0 .116-.039.193s-.077.116-.077.193v.193c0 .039-.039.077-.039.077 0 .039-.039.077-.039.116v.116c0 .039-.039.077-.039.116-.039.154-.077.347-.154.501-.039.077-.039.154-.077.27a.54.54 0 0 0-.077.231c-.039.154-.077.347-.116.501 0 .077-.039.116-.039.193v.077c0 .039-.039.077-.039.116s0 .077-.039.116-.077.154-.077.231c-.039.193-.116.347-.154.501s-.077.27-.116.424c0 .077 0 .116-.039.193a.3.3 0 0 1-.077.193c0 .039-.039.077-.039.154v.077c0 .038-.039.039-.039.039v.116c-.039.039 0 .077-.039.116 0 .077-.039.154-.077.27s-.077.27-.116.386c0 .077-.039.154-.039.193-.039.116-.039.27-.077.386 0 .077-.039.116-.039.193s-.039.116-.039.193c0 .039-.039.154-.039.193-.039.039-.039.116-.039.193s0 .116-.039.193-.039.193-.077.27c0 .077-.039.154-.039.231s-.039.116-.039.193-.039.193-.039.308l-.116.578c0 .077-.039.154-.039.27s-.039.27-.077.386c0 .039-.039.077-.039.154 0 .116-.039.193-.039.308-.039.193-.039.386-.116.54 0 .077-.039.154-.039.193-.039.231-.077.501-.116.733 0 .116-.039.231-.039.347v.309l-.039.039v.077c0 .077-.039.154-.039.231H5.76v.077c-.039 0 0 .039-.039.077-.039 0-.039-.039-.039-.039-.039-.039-.039-.039-.077-.039 0-.039 0-.039-.039-.077v-.039c0-.039.039-.116 0-.154 0-.039-.039-.039-.039-.077s.039-.039 0-.077c0-.077-.039-.077-.116-.077 0-.039.039-.039.039-.039v-.347c0-.039-.039-.077-.039-.116 0-.039-.039-.077-.039-.116l.039-.039v-.077c0-.077.039-.039.039-.116-.039-.116 0-.077 0-.154 0-.039 0-.077-.039-.116l-.039-.039c-.039 0 0-.039-.039-.039v-.039h.039-.039c-.039.039-.039 0-.039-.039v-.039s-.039 0 0-.039l.077-.039h-.039c0 .039-.039 0-.039 0v-.193l.039-.039v-.039c-.039-.039 0 0 0-.039v-.271c0-.039-.039-.039-.039-.077v-.077l-.039-.039v-.039s-.039-.039 0-.039v-.078s0-.039-.039-.039v-.039c0-.039-.039-.077-.039-.116v-.309s0-.039-.039-.039l-.039-.039c0-.039 0-.077-.039-.077v-.116s-.039-.039 0-.039h.039v-.039c0-.039-.039-.077-.039-.077-.039-.039-.039-.039-.039-.077V17.594c0-.038 0-.039-.039-.039v-.077l-.039-.039c-.039-.039-.039-.077-.039-.116v-.039s-.039 0-.039-.039.039 0 0-.039 0 0-.039 0v-.078s.039-.039 0-.039-.039-.039-.039-.039-.039 0-.039-.039v-.309h-.039c0-.077-.039-.154-.039-.231v-.039c0-.039 0-.039-.039-.039-.039-.039-.039-.077-.039-.116v-.193s.039 0 .039-.039h-.039v-.388s.039-.039 0-.039V15.501c0-.039 0-.039.039-.039 0 0 .039 0 .039-.039v-.155s-.039 0-.039-.039c0 0 .039 0 .039-.039v-.039s.039 0 .039-.039l-.039-.039c-.039 0-.039 0-.077-.039v-.077c0-.038.039-.039.039-.039v-.039l-.039-.039v-.077h.039c0-.039 0-.039-.039 0h-.039v-.039h.039v-.039h-.039s-.039-.077 0-.077h.039v-.078s-.039 0-.039-.039v-.155c0-.039-.039-.039-.039-.077v-.272c0-.039-.039-.077 0-.116v-.424l-.039-.039v-.193c0-.038 0-.039-.039-.077V12.289c0-.039 0-.116-.039-.154v-.077c0-.038 0-.039-.039-.077 0-.039-.039-.116-.039-.154s0-.039-.039-.039V11.671c0-.039-.039-.039-.039-.077v-.078l-.039-.039s0-.039-.039-.039l-.116-.116c-.039-.039-.077-.039-.077-.039h-.039c-.039 0-.039 0-.077-.039H3.39c-.038 0-.039 0-.077.039h-.039l-.039.039h-.039c-.039 0-.039 0-.077.039-.039 0-.039.039-.039.039-.039.039-.077.039-.116.077s-.077.039-.077.077-.077.077-.077.154c-.039.077-.077.116-.077.193-.039.077-.039.154-.077.231v.039l-.039.039c0 .039 0 .077-.039.116 0 0 0 .039-.039.039v.039c0 .039-.039.039-.039.077V12.598c-.039.077-.039.154-.077.231 0 .039 0 .039-.039.039v.039c0 .039-.039.077-.039.116s-.039.077-.039.077c-.039.116-.077.27-.116.386 0 .039-.039.077-.077.116-.308.154-.308.154-.308.231 0 .039-.039.077-.039.154 0 .039-.039.077-.039.116-.039.039-.039.077-.039.116s-.039.077-.039.116v.116c0 .039-.039.116-.039.154-.039.077-.039.154-.077.231s-.039.154-.077.231c0 .077 0 .077-.039.116s-.039.077-.039.116c-.039.039-.077.077-.077.116s0 .077-.039.116-.077.154-.077.27c0 .077-.077.116-.116.193 0 .039-.039.077-.039.116v.154c-.039.039-.039.116-.077.154 0 0-.116.077-.039.077-.039.039-.077.039-.039.116l-.039.077v.116c-.039.116-.077.193-.116.308s-.116.231-.154.347h.039c0 .039 0 .077-.039.116 0 .039-.039.077-.039.116v.077l-.039.039c0 .039 0 .077-.039.116 0 .039 0 .077-.039.077 0 .039 0 .077-.039.116 0 .077-.039.116-.077.193s-.039.116-.077.193a1.908 1.908 0 0 0-.077.463c0 .077.039.154.077.231.077.116.154.231.27.27.039.039.116.039.154.077h.424s.039 0 .039-.039h.039l.039-.039c.039 0 .039 0 .077-.039s.116-.039.154-.077l.077-.077s.039 0 .039-.039c0 0 0-.039.039-.039.039-.039.077.039.077 0v-.039c-.039-.039 0-.077 0-.116s0-.039.039-.039.039-.039 0-.077v-.039s.039 0 0-.039c0 0 .039 0 .039-.039v-.077c-.039.077-.039.077-.039.039v-.077c0-.038.039-.039.039-.077l.039-.039s-.039 0 0-.039c0-.039.039-.039.077-.077v-.039s.039 0 .039-.039v-.078c0-.039.039-.077.039-.116l.039-.039s.039 0 .039-.039-.039 0-.039 0v-.039h.039v-.077h.039v-.078l.039-.039s.039 0 0 0 0-.039 0-.039l.039-.039V17.681c0-.039.039 0 .039-.039v-.039h-.078v-.039s0-.039.039 0h.039v-.039c-.039 0 0 0 0 0h.039v-.156h.039v-.039H2.19c-.039 0 0 0 0-.039v-.039h.039v-.039c0-.039 0-.039.039-.039v-.039h.039v-.271h-.039v-.039s.039 0 0 0v-.039s.039 0 .039-.039l.039-.039h-.039v-.039c0-.039 0 0 .039 0s0-.039 0-.039v-.039s.039-.039 0-.077c0 0 0 .039 0 0V16.397h.077v.039c0-.039-.039 0-.039-.039h-.039V16.28s.039.039.077.039v-.155h.039V16.047l.039-.039v-.039l.039-.039h.039v.039H2.695v.039s0 .039.039.039h.039s.039 0 0 0v.078s-.039.039 0 .039v.039l.077-.077c.039 0 .039 0 .039.039s0 .039-.039.039h-.039V16.32s-.039 0 0 .039c0 0 .039 0 .039.039v.116c0 .039.039 0 .039.039v.039c-.039.039 0 .077 0 .116l.039.039h.039V16.864h.039v.155c0 .039 0 .039-.039.077l.039-.039v.503c0 .039 0 .077.039.116v1.084c.039 0 0 .116.039.077v.039s.039 0 .039.039v.617c0 .077.039.154.039.231V20.848c0 .039 0 .077.039.116v.463s0 .077.039.077v.077c0 .039.039.039.039.039v.505c0 .038 0 .039.039.077v.194c-.039 0 0 0 0 .039v.579l.039.039v.425c0 .039 0 .077.039.077v.426s-.039.039 0 .039v.156h.078l.039.039v.156c0 .039 0 .039-.039.039h-.078s.039 0 0 0c0 0-.039 0 0 .039h.156V25.03h-.039l.039.039v.504h.039v.039c0 .039.039.039.039.039v.155s0 .039 0 0V26.231l.039.039v.194c0 .039 0 .077.039.116V27.006c-.039 0 0 0 0 .039v.155c0 .039 0 .039.039.039V28.051c0 .039 0 .039.039.077v.078c0 .039 0 .039.039.077v.156c0 .039.039.039.039.077h.039l.039.039.039.039v.039l.039.039.039.039h.039l.039.039h.039c.039 0 .039.039.077.039h.385c.039 0 .039 0 .077-.039l.116-.039v-.039h.039l.039-.039H5.025l.077-.077.039-.039.039-.039v-.039l.039-.039v-.156c0-.039 0-.039.039-.077V27.703c0-.039 0-.077.039-.116 0-.039 0 0 .039-.039h-.039v-.27h.039V24.921c-.039 0 0-.039 0-.039v-.966c0-.039 0 0 0 0V22.835c0-.038.039-.039 0-.039s0 0 0-.039v-.502c0-.038.039-.039.039-.077v-.233h.039v-.311s0-.039.039-.039h.077l.039-.039V21.4H5.53c1.966.501 1.966.501 1.966.463v-.234s0-.039.039-.039V20.933c0-.039.039 0 .039-.039v-.039s.039 0 .039-.039v-.077l.039-.039v-.077h.039v-.271h-.039V20.236h-.039s-.039 0-.039-.039V19.379h.039v-.31h.039l-.039-.039V18.913l-.039-.039v-.078c0-.039 0-.039.039-.039v-.039c.039-.039.039-.077 0-.116v-.194l.039-.039-.039-.039v-.078c0-.039 0-.077.039-.116l.039-.039V17.981c0-.039 0-.039.039-.039v-.311h.039c.385.077.424.077.463.039-.039.039-.039 0 0 0 0 0-.039 0 0 0zM14.295 14.303c-.039 0 0 0 0 0-.039 0-.039 0 0 0-.077 0-.116 0-.154.039-.039 0-.077.039-.116.039 0 0-.039 0-.039.039h-.039c-.039 0-.039 0-.039.039 0 0-.039 0-.039.039l-.039.039s-.039 0-.039.039h-.039c-.039.039-.116.077-.154.116l-.077.077c-.038.038-.039.039-.039.077 0 0 0 .039-.039.039 0 .039-.039.039-.039.077s-.039.077-.039.116c0 .039-.039.077-.039.116v.039c-.039.039-.039.077-.039.116s0 .077-.039.116c0 .077-.039.154-.039.231v.386c.039 0 0 .039 0 .077V17.549s-.039.039 0 .039c-.039 0 0 .077 0 .077v.194l-.039.039c0 .039 0 .077-.039.116-.039 0-.039.116 0 .116v.039s-.039.039 0 .039c0 0-.039.154 0 .154v.039l-.039.039c0 .039 0 .039.039.077 0 .039-.039.077 0 .116v.156s0 .039-.039.039v.193s0 .039-.039.039v.658c0 .039-.039.039-.039.077V19.911c0 .039.039.039.039.077v.811h.039v.077c0 .039.039.039.039.039l.039.039.039.039h.039v.039c.039 0 .039.039.039.039.039 0 .039 0 .039.039 0-.039.077 0 .077 0h.194c.039 0 .077-.039.077-.039s.077 0 .077-.039h.039c0-.039.077-.039.116-.039s.039-.039.077-.039l.039-.039H14.139s.039 0 .039-.039c0 0 .039 0 .039-.039 0 0 .039 0 .039-.039l.039-.039h.039v-.039s0-.039.039-.039l.116-.116s0-.039.039-.039l.039-.039c.039-.039.039-.077.039-.077 0-.039.039-.039.039-.077s.039-.077.039-.077l.039-.077v-.695c.039 0 .039-.039.039-.077v-.077s-.039-.039 0-.077c0-.039 0 0 .039-.039v-.502s-.039-.039 0-.039v-.58c.039 0 0-.077 0-.077V17.9c0-.039.039-.039.039-.077v-.27h-.039v-.039s-.039 0 0-.039V17.359c-.039 0 0-.039 0-.039v-.078c.039 0 0-.039 0-.039s.039 0 .039-.039c0 0 0-.039.039-.039h.039v-.155s0-.039.039-.039v-.039c0-.039.039-.039.039-.039v-.155c0-.039.039 0 .039-.039 0 0-.039 0-.039-.039v-.039c0-.039.039-.039.077-.039 0-.039-.039-.039-.039-.077v-.077c0-.038 0-.039.039-.077 0 0 0-.039.039-.039v-.039l.039-.039c.039-.039.039-.077.077-.077l.077-.077.077-.077c.038-.038.039-.077.077-.077l.039-.039v-.039h.039s.039 0 .039-.039l.039-.039s0-.039.039-.039h.039l.039-.039h.039c.039 0 .039-.039.039-.039l.039-.039c.039 0 .039-.039.077-.039l.077-.077.039-.039h.039l.039-.039s.039 0 .039-.039c.039 0 .077-.039.077-.039.039 0 .039-.039.039-.077h.039c.039-.039.077-.116.116-.116 0-.039.039-.039.039-.077 0 0 0-.039.039-.039 0 0 .039 0 .039-.039v-.039s0-.039.039-.039c0-.039.039-.077.039-.116-.039 0 0-.077 0-.116v-.154l-.039-.039v-.039s0-.039-.039-.039c0 0 0-.039-.039-.039V14.217l-.039-.039s0-.039-.039-.039v-.078l-.039-.039-.077-.077-.039-.039h-.039c-.039 0-.077-.039-.116-.039h-.273s-.039-.039-.039 0v.039h-.039v-.039h-.039l.039.039-.039.039h-.078s-.039 0-.039.039c-.039 0-.039.039-.039.039H15.458c-.039 0-.077 0-.077.039h.039v.039h-.077c-.038 0-.077.039-.077.039-.039 0-.039.039-.039.039-.039 0-.077.039-.116.039s-.077.039-.116.039h-.078c-.039 0-.077 0-.077.039h-.54c0 .039 0 0 0 0zM12.483 12.453c.039-.039 0-.077 0-.116v-.039c-.039 0-.039-.039-.039-.039 0-.039 0-.039-.039-.077v-.155l-.039-.039v-.077c0-.039 0-.077-.039-.039h-.31v.039h-.039c-.039 0-.077.039-.077.039l-.039.039h-.039c-.039 0-.039.039-.077.039s-.039 0-.077.039l-.039.039c-.039.039-.116.077-.154.116l-.077.077c-.038.038-.039 0-.077.039 0 .039-.039.039-.077.077-.039 0-.039.039-.077.039-.039.039-.077.077-.077.116 0 0 0 .039-.039.039l-.039.039v.078s0 .039-.039.039l-.039.039v.078c0 .039-.039.039-.039.077V13.308l.039.039v.039c0 .039.039.039.039.077v.077h.039c0 .039 0 .039.039.077l.039.039H11.207v.039s.039-.039.039 0H11.362c.039 0 .039.039.077.039h.077v-.039l.039-.039h.039c0-.039.039 0 .039-.039 0 0 .039 0 .039-.039-.039-.039.077 0 .077-.039 0 0 0-.039.039-.039h.039s0-.039.039-.039c0 0 .039 0 .039-.039h.039s.039 0 .039-.039h.039s0-.039.039-.039l.077-.039.039-.039v-.039s0-.039.039-.039l.039-.039c.039 0 .039-.039.077-.039v-.078c0-.039.039-.039.039-.039.039 0 .039 0 .039-.039l.039-.039s0-.039.039-.039v-.078h.039v-.039c0-.039.039-.039.039-.077v-.155h.039s-.039 0-.039-.039c0 0 0-.039.039-.039-.154.039-.154.039-.116 0-.039 0-.039 0 0 0zM23.509 15.769c0 .039 0 .039.039.077l.077.077.039.039c.039 0 .077 0 .116.039h.232c.039 0 .154-.039.193-.039.039-.039.154-.077.193-.116s.077-.039.116-.077h.039v-.039h.039l.077-.077h.039v-.039h.039c.039 0 .039-.039.077-.077s.077-.039.077-.077.077-.077.116-.116c0-.039.039-.039.039-.077v-.077c0-.038.039 0 .039-.039s.039-.039.039-.077v-.077c-.039 0-.039 0 0 0v-.078s0-.039.039-.039V14.764l-.039-.039V14.338s-.039 0 0-.039V13.564l.077.039h.039v-.116h-.039v-.077h-.039v-.078h.039v.039h.039V13.254h-.039s-.039 0-.039-.039V12.982h.039v-.039c0-.039-.039-.077 0-.077l.039-.039h.039V12.71l.039-.039h.039v-.039s-.039 0-.039-.039v-.155l-.039-.039v-.077h.039l-.039-.039V12.167s.039 0 .039-.039v-.039s0 .039-.039 0v-.155h.039V11.818h-.039v-.039s.039 0 .039-.039l-.039-.039v-.078c0-.039 0-.039.039-.039V10.809s.039 0 0 0v-.078h-.039.078v-.116h-.039l.039-.039v-.078l-.039-.039h.039V9.993h-.039v-.078c0-.039 0 0 0 0V9.798H24.94s0 .039 0 0v-.039h-.309l-.039.039s-.039.039-.077.039l-.077.077h-.039v.039s-.039 0-.039.039h-.039l-.039.077s-.039.039-.039.077c0 0 0 .039-.039.039l-.039.039v.039l-.039.077v.039l-.039.039v.155l-.039.077v.271l-.039.039v.386s0 .039 0 0V12.004h-.039v.386s0 .039.039.039v.233h-.039v.039h-.039V14.053s-.039.039 0 .039v.155c0 .038 0 .193-.039.193 0 .039-.039.077 0 .116v.849c0 .038 0 .077.039.116-.463.154-.463.231-.424.231z"/>
      <path d="M35.962 12.106s-.039.039-.039 0 .039-.039.039-.039v-.039c0-.039 0-.039.039-.039v-.078c0-.039 0 0 0 0s-.039 0-.039-.039l.039-.039c0-.039-.039 0-.039-.039v-.078c-.039 0 0-.039-.039-.039 0 0-.039 0-.039-.039s-.039 0-.039-.039v-.039l-.039-.039c0-.039 0-.039-.039-.039l-.039-.039h-.039v-.039s0-.039-.039-.039l-.039-.039v.039s-.039 0-.077-.039c0 0 0-.039-.039-.039 0 .039-.039 0-.039 0 0 .039 0 .039.039.039h-.81c-.039 0-.077 0-.116.039-.039 0-.077.039-.116.039h-.039c-.077.039-.116.039-.193.077-.039 0-.077.039-.077.039s0 .039-.039.039h-.039c-.039 0-.039.039-.077.039 0 .039-.039.039-.077.039s-.039.039-.077.039c-.039 0-.039.039-.077.039-.039.039-.077.039-.116.077h-.039l-.039.039h-.039c0 .039-.039.039-.039.039h-.039c.116.077.077.077.077.077l-.039.039h-.039s-.039 0-.077.039h-.039s-.039 0-.039.039h-.039c-.039 0-.039 0-.039.039 0 0-.039 0-.039.039-.039 0-.077.039-.077.039-.039 0-.077.039-.077.039h-.039c0 .039-.077.039-.077.039-.039 0-.077.039-.116.039-.077.039-.154.039-.193.077h-.077c-.038 0-.039-.039-.077 0s-.039-.039-.077-.039 0-.077-.039-.077c0 0-.039-.039-.077 0 0 0-.039 0-.039-.039v-.039c0-.039-.039 0-.039 0s-.039-.039 0-.039v-.039c-.039 0 0-.039-.039-.039 0 .039-.039.039-.039 0-.039 0 0 0-.039-.039h.039s-.039-.039 0-.039.039-.039.077-.077v-.039h-.078v-.039c-.039 0 .039-.077.039-.077h-.078V11.637c0-.039 0-.039-.039-.039v-.039h.039v-.039c0-.039-.039 0-.039 0-.039 0-.039-.039-.039-.077h.039c.039-.039-.039 0-.039 0-.039 0 0-.039 0-.039h.039v-.078s0-.039-.039-.039 0 .039 0 .039h-.039V11.21c.039 0 .039.039.039 0V11.094s0-.039-.039-.039v-.078s0-.039.039-.039v.039-.234c0-.039.039 0 .039-.039s.039-.039 0-.039-.039 0-.077-.039v-.155s.039 0 .039-.039 0-.039-.039-.039l-.039-.039V10.238h.039c.039 0 0-.039 0-.039 0-.039 0-.039-.039-.039s-.039 0-.039-.039v-.617s.039-.039 0-.039V9.349h.077s-.039 0-.039-.039v-.039h-.039v-.077c0-.038 0-.039.039-.039s.039 0 .039-.039 0-.039-.039-.039-.039 0-.039-.039v-.116h.078s0 .039.039 0v-.039c-.039 0-.039 0-.039-.039s0-.039-.039-.077c0-.039-.039-.039 0-.039V8.65s.039 0 .039-.039h-.039c0-.039.039 0 .039 0v-.039s-.039 0-.039-.039c0 0 0-.039.039-.039l.039.039c.039 0 0-.039 0-.039-.039.039 0-.039-.039-.039v-.194c0-.039-.039.039-.077.039 0 0-.039.039-.039 0v-.039l.039-.039v-.039c-.039 0-.039-.039-.039-.039v-.193s0-.039.039-.039H31.975v-.039h-.078V7.757s.039 0 .039-.039c0 0 .039 0 0-.039h-.039c-.039 0 0-.039-.039-.077l-.039-.039v-.116h.077c0-.039-.039-.077-.039-.077h-.039v-.039c0-.039-.039-.077-.039-.116 0 0 .039-.039 0-.039 0 0 0 .039-.039 0V7.06l-.039-.039v-.078c0-.039-.039 0-.039.039-.039 0-.039-.039-.077-.077l-.077-.077c-.077-.039-.154-.039-.231-.077-.039 0-.077 0-.116-.039h-.232c-.039 0-.077 0-.116.039h-.194c-.038 0-.039 0-.077.039-.039 0-.077 0-.116.039l-.039.039c-.039 0-.039.039-.077.039s-.077.039-.116.039-.116.077-.193.116c-.039 0-.077.039-.077.039-.039 0-.077.039-.077.039s0 .039-.039.039l-.039.039-.077.077c0 .039-.039.039-.077.077l-.039.039s-.039 0-.039.039c-.039.039-.116.077-.154.154 0 0 0 .039-.039.039h-.039c0 .039-.039.039-.039.077l-.077.077s-.039 0-.039.039c-.039 0-.039 0-.039.039s-.077.039-.077.077c-.039 0-.077.039-.077.039h-.039l-.039.039s-.039 0-.039.039h-.077c-.038 0-.077.039-.116 0h-.155c-.038 0-.039 0-.039-.039s0-.039-.039-.039h-.155s-.039 0-.039.039l-.039.039c-.039.039-.077 0-.116 0h-.116c-.039 0-.154 0-.27.039-.039 0-.077.039-.116.039h-.077c-.039 0-.077.039-.116.077-.039 0-.077.039-.116.039l-.039.039h-.078s0 .039-.039.039-.077.077-.077.116l-.077.077c0 .039-.039.039-.039.077-.039.039-.039.039-.039.077s-.039.077-.039.116c0 .039-.039.077-.039.116a.54.54 0 0 0-.077.231v.232c0 .039 0 .154-.039.231V11.233c-.039 0 0 .039 0 .039-.039.039 0 .077 0 .077v.039c0 .039-.039.039 0 .077v1.275c.039 0 0 .039 0 .039v.964c0 .038 0 .116.039.154 0 0 0 .039.039.039 0 .039 0 .039.039.077s.039.077.116.116c.039.039.077.077.116.077h.154c.039 0 .077.039.154 0 .039 0 .116 0 .154-.039a.292.292 0 0 0 .154-.077c.039 0 .039 0 .039-.039 0 0 .039-.039.077-.039s.039-.039.039-.039h.039s.039 0 .039-.039c.039 0 .077-.039.077-.039s.039 0 .039-.039l.039-.039h.078v-.039l.039-.039.039-.039c0 .039.077 0 .039 0-.039-.039.039-.039.077-.077v-.194h.039c.039 0 0 0 0-.039V13.274c.077 0 0-.039.039-.039l.039-.039s.039 0 .039-.039v-.039c0-.039.039 0 .039-.039v-.077c0-.038-.039-.039-.039-.039-.039-.039 0-.039 0-.077s-.039-.039-.039-.077c.039 0 .039.077.039.077.039 0 0-.039 0-.039v-.078c0-.039.039-.039.039-.039V12.613c0-.039.039-.039.039-.077 0 0 0-.039-.039-.039 0 0-.039 0-.039-.039 0 0-.077 0-.077-.039s.077 0 .077 0v-.039h-.039c-.039 0-.039-.039-.039-.039s-.039-.039 0-.039.039 0 .039-.039 0-.039-.039-.039c0-.039.039-.039.039-.039.039 0 .039-.039.039-.077h-.039c-.039 0-.039.039-.039.039h-.039l.039-.039s-.039 0-.039-.039v-.503c0-.039 0-.039.039-.039h.039c0-.039-.039-.039 0-.039l-.039-.039h-.039c0-.039.039-.039 0-.077-.039 0 .039-.039.039-.039v-.078s-.039-.077 0-.039v.077h.039s.039 0 .039-.039c.039 0 .039-.039 0-.039h-.039v-.077s-.039 0-.039-.039c0 0 .039 0 .039-.039v-.039h-.039c-.039 0-.039-.039-.077-.077 0 0-.039 0-.039-.039v-.077h.039s.039 0 0 0c0-.039-.039-.039-.039-.077s.116 0 .077-.039c-.039 0 0 0 0 0h.039c.039 0 .039-.039.039-.077.039-.039 0-.039 0-.077v-.039l-.039-.039v-.039c0-.039 0-.039-.039-.039v-.077c0-.039.039-.077.039-.077.039 0 .077.039.077 0l-.039-.039h-.077c.039 0 .077 0 .077-.039s-.039 0-.039-.039c0 0 .039 0 .039-.039 0 0 .039 0 .039-.039s-.039 0-.039 0c-.039 0-.077 0-.039-.039h.039c0-.039-.039-.039 0-.039 0-.039.077 0 .039.039h.039c.039 0 0 0 .039-.039l.039-.039c0-.039-.039 0-.077-.039 0-.039 0-.039.039-.077 0 0 .039 0 .039-.039v-.194c0-.039-.039 0 0-.039v-.039h.039V9.393c0-.039.039-.077 0-.116v-.039s.039 0 .039-.039c.039 0 .039-.039.077-.039.039-.039.039-.077.039-.116l-.039-.039h.039v.039c0 .039.039 0 .039 0 0-.039.039-.039.039-.039l.077-.077.039-.039s.039 0 .039-.039c.039-.039.039-.077.039-.116.039 0 .039-.039.077-.039s0 0 0-.039v-.039s0-.039.039-.039c0 0 .039 0 .039-.039h.039c.039 0 .039-.077.077-.077l.039-.039h.077l.039-.039c.039 0 .039 0 .077-.039s.039-.039.077-.039h.077l.039-.039h.194c.039 0 .154.077.193.116l.039.039v.039h.039V9.93h-.039V10.046h.039v.039c0 .039 0 .039-.039.039 0 0-.039.039 0 .077v.155c0 .039 0 .077-.039.116v.077c0 .039 0 .116-.039.154 0 .039 0 .039.039.077 0 .039.039.077.039.116s0 .077-.039.116V11.476c0 .038-.039.039 0 .077l.039.039v.656c0 .039 0 .077.039.116v.077c0 .038 0 .039.039.039l.039.039v.039s0 .039.039.039l.039.039c0 .039.039.039.077.077l.077.077c.039.039.077.039.116.039s.039 0 .039.039 0 .039-.039.039c0 0-.039 0-.039.039-.039 0-.039.039-.077.039h-.039c-.039.039-.077.039-.116.077-.039 0-.039.039-.077.039s-.039.039-.077.039c0 0-.039 0-.039.039l-.039.039s-.039 0-.039.039l-.039.039c-.039.039-.077.039-.116.077-.077.039-.116.077-.193.077-.154.077-.27.193-.424.231-.039 0-.077.039-.116.039s-.039.039-.039.039-.039 0-.039.039c-.077.039-.116.077-.193.116-.039 0-.077.039-.077.039h-.039c-.039 0-.039 0-.039.039-.039.039-.077.039-.116.077h-.039c-.039 0-.039.039-.077.039l-.039.039s-.039 0-.039.039c-.077.039-.116.077-.193.116s-.154.077-.193.116l-.039.039h-.039s-.039 0-.039.039c0 0-.039 0-.039.039-.077.039-.154.077-.193.116-.077.039-.154.077-.193.116s-.077.039-.116.077c-.039 0-.077.039-.077.039-.077.039-.116.077-.193.077-.039 0-.077.039-.116.039s-.039.039-.077.077l-.039.039h-.039c-.039.039-.077.039-.077.077-.077.039-.116.077-.193.116-.039 0-.039.039-.077.039 0 0-.039 0-.077.039 0 0-.039 0-.039.039 0 0-.039 0-.039.039-.039 0-.039 0-.039.039 0 0-.039 0-.039.039l-.039.039h-.039s0 .039-.039.039H26.058v.039h-.039c-.039 0-.077.039-.077.039s-.039 0-.039.039-.039 0-.039.039l-.039.039-.039-.039s-.039 0-.077.039v.039h-.039c-.039.039-.039.077-.077.077h-.039s0 .039-.039.039-.039.039-.077.039-.077.039-.116.039c-.039 0-.077.039-.116.039s-.077.039-.116.039c-.039.039-.077.039-.077.039l-.039.039-.039.039c-.039.039-.039.039-.077.039-.039.039-.077.039-.077.077-.039 0-.039.039-.077.039s-.039 0-.077.039-.077.039-.077.077-.077.039-.077.039-.077.039-.077.077c0 0-.039.039-.077.039h-.039l-.039.039-.077.039c-.077.039-.154.116-.27.154-.077.039-.154.116-.231.154a2.805 2.805 0 0 1-.463.27c-.077.077-.193.116-.27.193l-.039.039h-.039c-.039 0-.039 0-.039.039 0 0-.039.039-.077.039s-.077.039-.077.039-.077.039-.116.039l-.039.039s-.039 0-.039.039c-.039.039-.077.039-.077.039s-.039 0-.039.039c-.039 0 0 0-.039.039 0 0-.039 0-.039.039 0 0-.039 0-.039.039v.039h-.039s0 .039-.039.039h-.039v.039l-.039.039s-.077.039-.116.039v-.077s.039 0 0-.039 0-.039 0-.039v-.078c0-.039.039-.077 0-.116 0-.039-.039-.077 0-.116V17.251c0-.039 0 0 .039-.039V17.095c0-.039-.039-.039-.039-.077 0-.039.039-.039.039-.077-.039 0 0-.039 0-.039-.039 0-.039-.077 0-.116h.039l-.039-.039v-.039c0-.039.039-.039.039-.077v-.155c0-.039-.039 0-.039-.039v-.193s.039 0 0-.039h-.039V15.858s0-.039.039-.039c0 0 .039 0 .039-.039h-.039v-.271c0-.039.039-.077.039-.116-.039 0 0-.039 0-.039v-.539c-.039 0 0-.039 0-.077v-.309c0-.116.039-.231.039-.347v-.732s-.039 0-.039-.039.039-.039.039-.039v-.385s.116-.039.039-.077c0 .039 0 .039-.039 0v-.154h.039c.039-.039 0-.039-.039-.077v-.039h.039v-.039s-.039 0 0-.039h.039v-.195s-.039-.039 0-.039c.039-.039.077-.039.039-.077l-.039-.039c0-.039 0-.039.039-.039V11.841c.039 0 .039 0 .039-.039v-.155h.039s.039-.039 0-.039l-.039-.039v-.116l.039-.039c-.039 0 0-.039 0-.039v-.194s.039-.039 0-.039c0 0-.039 0-.039-.039s.039 0 .039 0h-.039c-.039 0 0 0 0-.039s0-.077-.039-.077-.039 0-.039-.039l-.039-.039c0-.039-.039-.039-.077-.077-.039-.077-.116-.077-.193-.116-.039 0-.077-.039-.116-.039h-.154c-.077 0-.193 0-.27.039-.039 0-.039.039-.077.039 0 0-.039 0-.039.039h-.039v.039s-.039.039-.077 0h-.039c-.039 0-.039.039-.077.039-.039 0-.039.039-.077.039s-.039.039-.077.077c0 .039-.039.039-.077.077l-.039.039v.039c-.039.039-.039.077-.039.116v.193c0 .039-.039.077-.039.116v2.395s-.039-.039-.039.039v.039c0 .039 0 0 .039 0v.155h-.039v.657c0 .039 0 .077-.039.116v.425c0 .039-.039.116 0 .193v.077s0 .039-.039.039v.116c0 .039 0 .077-.039.116 0 .077 0 .154-.039.231v.078c0 .039 0 .077-.039.116-.039.154-.077.27-.154.386 0 .039-.039.039-.077.077l-.116.116c0 .039-.039.039-.039.039s0 .039-.039.039h-.039l-.077.077h-.039s-.039 0-.039.039h-.077l-.039.039c-.039.039-.116.039-.193.039h-.155s-.039 0-.039-.039c-.039 0-.039 0-.077-.039-.039 0-.039-.039-.039-.039-.039-.039-.077-.039-.077-.077-.039-.039-.039-.077-.039-.116v-.077l-.039-.039c-.039-.077-.039-.154-.039-.231s-.039-.154 0-.231v-.039c0-.039-.039-.039-.039-.039v-.039c0-.039 0-.077-.039-.077v-.154l.039-.039c0-.039.039-.077.039-.116v-.116c0-.039 0-.154.039-.231v-.309l.039-.039v-.039c.039 0 .039-.077.039-.116s0-.077-.039-.116c-.039 0-.039-.039-.039-.039V14.583c.039 0 0-.154 0-.154v-.039c0-.039.039-.039.039-.077v-.155s0-.039.039-.039c0-.039.039-.077.039-.116s0-.077.039-.116c0-.039.039-.077.039-.116.039-.039.077-.077.077-.116s.039-.077.039-.154c0-.039 0-.116.039-.116 0 0 0-.077.039-.039v-.039c.039 0 .039-.039.039-.077s.039-.077.039-.039c0 0 .039-.039.039-.077v-.077c-.039 0 0-.039.039-.039s.039-.039.039-.039c.039-.039.077-.039.077-.077h.039c0-.039 0-.077.039-.116 0-.039.077-.116.077-.077 0 0 .039 0 .039-.039 0 0 0-.039.039-.039 0-.039.039 0 .039-.039 0 0 .039-.039.039-.077v-.077h.039v-.077l.039-.039.039-.039v-.077s0-.039.039-.039v-.039c0-.039.039-.077.039-.116s0-.039-.039-.039v-.039c0-.039 0-.077.039-.077v-.233s0-.039-.039-.039l-.039-.039s0-.039-.039-.039h-.425c-.039 0-.077.039-.116.039-.039 0-.077 0-.077.039h-.039c-.039 0-.039 0-.039.039h-.039s-.039 0-.039.039c-.039 0-.077 0-.077.039l-.116.116h-.078s-.039.039-.039 0h-.078l-.039.039c-.077.039-.116.077-.154.116s-.116.077-.154.116l-.077.077-.039.039s0 .039-.039.039h-.039v.039s0 .039-.039.039c0 .039-.039.039-.039.077v.039h-.039s0 .039-.039.077-.039.077-.077.116l-.039.077s0 .039-.039.039v.039l-.039.039-.039.039c0 .039-.039.039-.039.077s0 .039-.039.077v.039l-.077.077v.039s0 .039-.039.039c0 0 0 .039-.039.039 0 0 0 .039-.039.039v.039s0 .039-.039.039c0 .039-.039.077-.039.116v.039s0 .039-.039.039v.039l-.039.039v.039c0 .039 0 .039-.039.077 0 .039 0 .039-.039.077 0 .039-.039.077-.039.077 0 .039 0 .077-.039.116 0 .039 0 .077-.039.116 0 .039 0 .077-.039.116 0 .077-.039.116-.039.193 0 .039 0 .077-.039.077v.039s.039.039 0 .039c0 .039 0 .077-.039.116v.154c0 .038-.039.039-.039.077v.849c0 .038 0 .039-.039.077 0 .039 0 .039-.039.077V16.167c.039 0 0 .116 0 .154s.039.039.039.039v1.233c.039.039 0 .039 0 .077v.154a.345.345 0 0 1 .039.193v.039s0 .039.039.039c0 .039 0 .077.039.077 0 .039.039.077.039.077s0 .039.039.077c0 .039.039.039.039.039v.077l.039.039.116.116c.039.039.077.039.077.077v.039c.039.039.116.077.154.116.039 0 .077.039.116.039 0 0 .039 0 .039.039 0 0 0 .039.039.039v-.039h.193c.038 0 .039.039.077.039h.309c.039-.039.077 0 .116 0h.308c.039 0 .077-.039.154-.039h.039v-.039h.155s.077.039.077 0c0 0-.077 0-.077-.039s.039 0 .077-.039c.039 0 .039-.039.077-.039 0 0 .039.039.077 0v-.039h.039s0-.039.039-.039h.116c.039 0 .039 0 .077-.039.039 0 .077 0 .077-.039h.039v-.039c.039-.039.039 0 .077 0v-.039h.039l.039-.039h.077s0-.039.039-.039c0 0 .039 0 .077-.039l.039-.039c.039 0 .039 0 .077-.039l.039-.039h.077c.039 0 .039.077.039.116V18.863s0 .039.039.039c0 .039 0 0-.039.039v.311s.039.039 0 .039v.039c-.039 0-.039 0-.077.039l-.039.039-.039.039s-.039 0-.039.039l-.077.077c-.038.038-.077.039-.116.077-.039 0-.039.039-.077.077s-.077.039-.077.077h-.039c-.116.039-.193.116-.27.154-.039.039-.077.039-.116.077l-.077.077v.039h-.039l-.039.039c-.077.039-.116.116-.193.154s-.116.116-.231.193c-.077.039-.154.154-.27.193 0 .039 0 .039-.039.039l-.039.039c-.039.039-.077.039-.077.039s-.039 0-.039.039c0 0 0 .039-.039.039s-.039 0-.039.039l-.077.077h-.039c0 .039-.039.039-.039.039-.039 0-.039.039-.077.039s-.039.039-.077.039c-.039 0-.039.039-.077.039 0 .039-.039.039-.039.039l-.039.039s-.039 0-.039.039l-.077.077c-.039 0-.039 0-.077.039s-.077.039-.077.077-.077.077-.116.116c-.039.039-.077.077-.116.077h-.039s0 .039-.039.039c0 0-.039 0-.039.039 0 0 0 .039-.039.039s-.039.039-.077.039c-.039 0-.039.039-.077.039 0 .039-.039 0-.039.039 0 0 0 .039-.039.039 0 0-.039 0-.039.039v.039h-.039c-.039 0-.039.039-.077.077l-.039.039s-.039 0-.039.039c-.039 0-.077.039-.116.039l-.039.039s-.039 0-.039.039c0 0 0 .039-.039.039 0 0 0 .039-.039.039 0 0-.039 0-.039.039-.039 0-.039.039-.077.077-.039 0-.039.039-.077.077 0 0-.039 0-.077.039l-.039.039c-.039 0-.077.039-.116.077l-.039.039c-.039 0-.039.039-.039.039l-.077.077s-.039 0-.077.039c-.039 0-.039.039-.039.039-.039.039-.077.039-.116.077l-.077.077c-.038.038-.077.039-.116.077-.039.039-.077.039-.077.077-.039.039-.039.077-.077.077-.039.039-.039.039-.116.077s-.154.116-.193.154c-.077.039-.116.116-.193.154-.039.039-.077.039-.116.077l-.039.039c-.039 0-.039 0-.039.039l-.154.154c-.038.038-.116.077-.154.116-.039.039-.077.077-.116.077.039.039-.116.039-.077.116-.039 0 0-.039-.039 0 0 .039-.077.116-.116.116-.424.193-.463.193-.463.231-.039.039-.039.039-.116.039l-.039.039-.039.039c-.039.039-.039.077-.077.077a.472.472 0 0 0-.193.193c-.039 0-.039.039-.077.039 0 0-.039.039-.039.077-.039 0-.039 0-.039.039 0 0-.039 0-.039.039-.039.039-.077.039-.077.077-.077.039-.116.116-.193.154s-.154.154-.231.193c0 0-.039 0-.039.039 0 0 0 .039-.039.039s-.039 0-.039.039l-.039.039c-.039.039-.077.039-.116.077 0 0-.039 0-.039.039-.039 0-.077.039-.116.077l-.077.077c-.039 0-.077.077-.116.077 0 0-.039.039-.077.039l-.039.039c-.039.039-.077.039-.116.077s-.077.077-.116.077-.116.116-.193.154l-.077.077-.077.077-.077.077v.039h-.039c-.039 0-.077.039-.116.077 0 .039-.039.039-.039.039l-.077.077s-.039 0-.039.039c0 0 0 .039-.039.039h-.039l-.039.039c-.077.116-.116.154-.116.193l-.193.193c-.039.039-.077.039-.077.077l-.116.116c-.077.039-.116.116-.193.154-.077.077-.154.116-.193.193l-.077.077c-.039.039-.077.039-.077.077l-.077.077c-.038.038-.077.039-.077.077s-.116.116-.193.154c-.077.039-.116.116-.154.154l-.193.193-.116.116c-.039.039-.077.077-.077.116-.039.077-.116.154-.154.193s-.077.116-.116.154c-.039.039-.039.077-.077.116s-.039.077-.077.116c-.039.039-.039.077-.039.116.039 0 0 .039 0 .039 0 .039-.039.116-.039.116 0 .077.039.077.039.154v.077c0 .038 0 .039.039.077 0 .039 0 .077.039.077 0 0 0 .039.039.039 0 .039.039.077.039.116l.039.039c0 .039 0 .039.039.077 0 .039.039.039.077.039.039.039.039.077.077.077.077.039.116.077.193.116h.039s.039 0 .039.039h.077s.039 0 .039.039h.542c.039 0 .039 0 .039-.039h.039c.039 0 .039 0 .039-.039 0 0 .039 0 .039-.039 0 0 0-.039.039-.039 0-.039.039-.039.039-.039.039 0 .039-.039.039-.039s.039 0 .039-.039c0 0 0-.039.039-.039l.077-.077s0-.039.039-.039c0-.039.039 0 .039-.039 0 0 0-.039.039-.039l.039-.039.077-.077.116-.116v-.039c0-.039.039-.039.077-.077l.077-.077c.039 0 .039-.039.077-.077l.077-.077s.039 0 .039-.039l.039-.039s0-.039.039-.039l.039-.039s.039 0 .039-.039c0 0 0-.039.039-.039h.039s0-.039.039-.039l.039-.039v-.039s.039 0 .039-.039l.039-.039.077-.077c0-.039.039-.039.039-.077s0-.039.039-.077c0 0 .039 0 .039-.039h.039s0-.039.039-.039c0 0 .039 0 .039-.039 0 0 0-.039.039-.039l.077-.077c0-.039.039-.039.077-.039l.077-.077.039-.039s0-.039.039-.039c.039-.039.039-.039.077-.039l.077-.077c0-.039.039-.039.039-.039s0-.039.039-.039c0 0 .039 0 .039-.039.039 0 .039-.039.039-.077 0 0 0-.039.039-.039 0 0 .039 0 .039-.039l.077-.077.077-.077s.039 0 .039-.039c0 0 0-.039.039-.039l.077-.077c.038-.038.077-.039.077-.077.077-.039.077-.116.116-.154s.077-.116.154-.116c0 0 .039 0 .039-.039l.077-.077c0-.039.039-.039.039-.039l.039-.039c.039-.039.039-.039.039-.077l.039-.039v-.039s.039 0 .039-.039l.116-.116c.039-.039.039-.077.077-.077.039-.039.077-.039.116-.116 0-.039.039-.039.077-.039s.039-.039.077-.039c.039 0 .039-.039.077-.039 0-.039 0-.039.039-.039s.039 0 .039-.039.039-.039.077-.077c0 0 .039 0 .039-.039l.039-.039.077-.077.039-.039v-.039l.077-.077.077-.077c0-.039 0-.039.039-.039s.039 0 .039-.039l.077-.077.039-.039s0-.039.039-.039c0-.039.039-.039.077-.077l.039-.039s.039 0 .039-.039c0 0 0-.039.039-.039l.039-.039s.039 0 .039-.039c0 0 0-.039.039-.039.039-.039.039-.039.077-.039 0 0 0-.039.039-.039l.116-.116s.039-.039.077-.039c.039-.039.116-.077.154-.116l.077-.077c.039 0 .039-.039.077-.077l.039-.039s.039 0 .039-.039l.077-.077.077-.077c.038-.038.116-.077.154-.116.039 0 .039-.039.039-.039.039 0 .077-.039.116-.077l.116-.116c.039-.039.116-.077.154-.116l.077-.077h.039v-.039s.039 0 .039-.039l.077-.077.077-.077c.038-.038.077-.039.077-.077s.039-.039.077-.039.039-.039.077-.039l.039-.039h.039l.039-.039.077-.077s.039 0 .039-.039h.039s0-.039.039-.039l.039-.039c.039-.039.077-.039.077-.077l.077-.077c.039 0 .039 0 .039-.039 0 0 .039 0 .039-.039l.077-.077h.078s0-.039.039-.039h.039l.039-.039.039-.039c.039-.039.077-.039.077-.077.039-.039.116-.077.154-.154 0 0 .039 0 .039-.039l.039-.039c.039 0 .039-.039.077-.039l.077-.077.077-.077.039-.039h.039c0-.039 0 0 0 0l.039-.039c.039-.039.077-.039.077-.077v-.039h.039c.039 0 .039 0 .039-.039 0 0 .039 0 .039-.039.039 0 .039-.039.077-.039l.077-.077s0-.039.039-.039h.078s.039 0 .039-.039v-.039h.039c0-.039.039-.039.039-.039s.039 0 .039-.039c.039 0 0 0 .039-.039l.039-.039s.039 0 .039-.039c0 0 0-.039.039-.039 0 0 .039 0 .039-.039l.039-.039.039-.039c.039 0 .039-.039.077-.039 0 0 .039-.039.077-.039 0 0 0-.077.039-.039.039 0 .077-.039.077-.039.039 0 .077-.039.077-.077.039-.039.077-.039.077-.077l.039-.039s.039 0 .039-.039l.039-.039c0-.039 0-.039.039-.039s.039-.039.077-.039c0-.039.039-.039.077-.077s.039-.039.077-.039.039-.039.039-.039c.039 0 .039-.039.077-.039.039-.039.077-.039.077-.077.039-.039.039-.039.077-.039 0 0 .039 0 .039-.039 0 0 .039 0 .039-.039.039 0 .039-.039.077-.039s.039-.039.077-.039c0 0 .039 0 .039-.039.039 0 .039 0 .077-.039V24.985l.039.039v.155h-.039v.039s0 .039.039.039V25.682s-.039.077-.039.116v.232c0 .077 0 .116.039.193V27.034c0 .039 0 .077-.039.116v1.584c.039 0 0 .077 0 .116V29.778c.039 0 .039.039.039.039v1.006c0 .039.039.077.039.116v.155c0 .039.039.077.039.116 0 .039.039.039.039.077l.077.077c.039.039.077.039.077.077.039 0 .039.039.077.039a.12.12 0 0 0 .077.039c.077.039.154.039.231.077.039 0 .077.039.116.039h.386s.039 0 .039-.039h.039l.039-.039s.039 0 .039-.039c.077-.039.154-.116.27-.193l.077-.077c.039-.039.039-.077.077-.077 0 0 0-.039.039-.039v-.039c0-.039.039-.039.039-.077v-.078h.078s0-.039.039-.039h.039c-.039 0-.077-.039-.077-.039h-.039v-.116s.077 0 .077-.039h-.039v-.039c0-.039-.039-.039 0-.039 0 0 .039-.039.077-.039 0 0 .039-.039 0-.039 0 0 0 .039-.039.039s0-.039 0-.039h-.039s0-.039-.039-.039v.039h-.039v-.039s-.039 0-.039-.039c0 0 .039-.039 0-.039l-.039.039v-.039c-.039.039 0 0-.039-.039h-.039c-.039 0 0-.039 0-.039v-.039h.039c-.039 0 0-.039 0-.039h-.078s-.039.039-.039 0v-.078c.039 0 0 0 0 .039 0 0 0 .039.039.039h.039v-.039s.039 0 .039-.039c0 0-.039 0-.039-.039h-.039.039l.039-.039c-.039 0 0-.039 0-.039.039 0 0 .039 0 .039.039 0 .039-.039.039-.077h-.077c-.039 0-.039-.039-.039-.039-.039-.039-.039.039-.077 0 .039 0 .039-.077.077-.039 0 0 0 .039.039.039l.039-.039s0-.039-.039-.039c0 0-.039 0-.039-.039-.039 0 0 0-.039-.039-.039 0 0 0 0 .039V29.771h-.039c0 .039.039.077-.039.077-.039 0-.077-.039-.077-.039v-.039c0-.039.039 0 0-.039l-.039-.039v-.078h.039s.039 0 0-.039h-.039v-.039c0-.039.039 0 .077 0 .039 0 .039-.039.039-.039l-.039-.039c-.039 0-.039.039-.039.039h-.039c-.077 0 0-.039 0-.039H22.011s-.039 0-.039-.039l.039-.039.039-.039v-.039l.039-.039s-.039 0-.039-.039c0 0 .039 0 0-.039 0 0 0 .039-.039.039s0-.039 0-.039h-.039v-.039h-.039V28.875h-.039v-.039h-.039v.039h-.039s0-.039-.039-.039h-.078v-.039l.039-.039v-.039c-.039 0-.039 0-.039-.039s.077-.039.077 0c-.039 0 0 .039 0 0V28.563s.039 0 0-.039h-.039c0-.039.077-.039.039-.077 0-.039-.077 0-.039-.039 0 0 .039 0 .039-.039v-.039h-.078v-.078c.039-.039-.039-.039-.077-.039 0 0-.039.039-.039 0v-.039c.039-.039 0-.077 0-.116h.078v-.039c0-.039-.039-.039-.077 0 0-.039.039-.039 0-.039h-.039v-.039l-.077-.039.039-.039s.039-.077 0-.077c0 0-.039 0-.039-.039v-.078c-.039-.039.039-.039.077-.039l.039-.039h-.077V27.475s0-.039-.039-.039 0 .039 0 .039 0 .039-.039.039h-.039v-.078c0-.039.039 0 .039-.039s-.039-.039-.039-.039c0-.039.039-.039 0-.039 0-.039.077 0 .116 0v-.039s-.039 0-.039-.039v-.039h-.039v-.078h-.039c-.039 0 0-.039 0-.039v-.039h.039s0-.039.039-.039h.039c.039 0 .039-.039.039-.077l-.039.039c0 .039-.039 0-.039 0 0-.039 0-.039.039-.039v-.039l-.039.039s0 .039-.039 0v-.039s-.039 0-.039-.039.039 0 .039-.039v-.078.039h-.078v-.078c0-.039 0-.039-.039-.039v-.039h-.039c-.039 0 0-.039 0-.039l.039-.039c.039-.039 0 0 .039 0l.039-.039v-.039h.039v-.039h-.077.078s.039 0 .039-.039v-.039h-.039s.039-.039 0-.039h-.039l-.039-.039h.039c.039 0 .039-.039 0-.039 0 0-.039 0-.039-.039h-.039v-.039s-.039 0-.039-.039 0-.039.039-.039h.039v-.156s0-.039-.039-.039c0 0-.039.039-.077.039 0 0 .039 0 .039-.039 0 0-.039-.039-.039 0v.039-.039l.039-.039v-.039h-.039c-.039 0 0-.039 0-.039v-.078h.077v-.039h-.039v-.039c0-.039 0-.039.039-.039h-.039s.039 0 .039-.039h-.039v-.078s0-.039.039-.039v-.039s0 .039-.039.039v-.039s0-.039.039-.039c0 0 .039-.039 0-.039h-.039v-.156s-.039 0-.039-.039V24.98h.039v-.155h-.039.039v-.273s0-.039-.039 0v-.116h.039V24.32s.039-.039 0-.039h-.039v-.039s.039 0 .039-.039h.039v-.077h-.039V23.543c0-.039 0 0 .039-.039v-.312c0-.039-.039 0-.039-.039V22.843s-.039-.039 0-.039V22.687h.039v.039s.039 0 .039-.039v-.039l.039-.039h-.039s.039-.039 0-.039v-.078h.039v-.389h-.039v-.039h-.039v-.194l.039-.039v-.039s-.039 0-.039-.039V21.636l.039-.039v-.039l.039-.039v-.078h-.039c-.039 0 0-.039-.039-.039v-.311h-.039v-.039h.078v-.078c-.039 0-.039 0-.039-.039s.039-.039.039-.039v-.155c0-.039.039-.039.039-.039l.039-.039s0-.039.039-.039c0 0 0 .039.039 0 0 0 0-.039.039-.039h.039v-.039h.077s0-.039.039-.039c0 0 .039-.039 0-.039h.156c-.039 0 0-.039.039-.039h.039v-.039l.039-.039s.039 0 .039-.039c0 0 .039 0 .039-.039l.039-.039h.039v-.039l.039-.039h.156l.077-.077c0-.039.039-.039.077-.039h.039l.039-.039c.039-.039.039-.039.077-.039 0 0 .039 0 .039-.039 0 0 .039 0 .039-.039.039 0 .039-.039.077-.077s.077-.039.116-.077h.077v-.039s.039 0 .039-.039h.078c0-.039 0-.039.039-.039 0 0 .039 0 .039-.039 0 0 .039 0 .039-.039l.039-.039h.039s0-.039.039-.039.077-.039.116-.039c.039-.039.077-.039.116-.077h.039l.039-.039s.039 0 .039-.039l.077-.039c.039-.039.039-.039.077-.039s.039-.039.077-.039c0 0 .039 0 .039-.039 0 0 .039 0 .039-.039.039 0 .039-.039.077-.039s.077-.039.116-.077c.039 0 .077-.039.077-.039l.039-.039s.039 0 .039-.039v-.039h.078l.039-.039c.039-.039.077-.039.116-.077.077-.039.116-.077.193-.116.039 0 .039-.039.077-.039s.077-.039.116-.039.116-.077.193-.116c.039-.039.077-.039.116-.077s.077-.039.116-.039c.039-.039.077-.039.116-.077.039 0 .077-.039.077-.039.039-.039.039-.039.077-.039s.077-.039.077-.039l.039-.039h.039l.039-.039s.039 0 .039-.039c0 0 .039 0 .039-.039 0 0 .039 0 .039-.039.039 0 .039-.039.077-.039l.039-.039s.039 0 .039-.039l.039-.039h.039v-.039h.039s.039 0 .039-.039c.039-.039.039-.039.077-.039s.077-.039.116-.039c0 0 0-.039.039-.039 0 0 .039 0 .039-.039.039 0 .077-.039.116-.077.077-.039.116-.077.193-.077 0 0 .039 0 .039-.039l.077-.039.039-.039c.039 0 .077-.039.077-.039.039 0 .077-.039.077-.039h.039l.039-.039s.077 0 .077-.039h.078s.039-.039.077-.039h.039l.039-.039.039-.039s.039-.039.039 0l.039-.039s.039 0 .039-.039c.039 0 .077-.039.077-.039l.039-.039.077-.039.039-.039c.039 0 .077-.039.116-.039l.039-.039c0-.039 0-.039.039-.039h.077c0-.039.077-.039.077-.039l.039-.039s.039 0 .039-.039c.039-.039.039-.039.077-.039 0 0 .039 0 .039-.039 0 0 0-.039.039-.039H28.636c.039 0 .077-.039.116-.039.039 0 .039-.039.077-.039s0 0 .039-.039h.078c.039-.039.077-.039.116-.039s.077-.039.116-.039.077-.039.077-.039c.039 0 .077-.039.116-.039.039-.039.077-.039.116-.077 0-.039.039-.039.077-.039h.039l.039-.039h.039s.077-.039.116-.039c0 0 .039 0 .039-.039.039 0 .039 0 .039-.039h.078c.039 0 .039-.039.077-.039h.039l.039-.039c.039 0 .039-.039.077-.039 0 0 .039 0 .039-.039h.039l.077-.039.039-.039c.039 0 .077-.039.077-.039l.039-.039h.039c.039 0 .077-.039.077-.039.039-.039.077-.039.116-.077.039 0 .077-.039.116-.039 0 0 .039 0 .039-.039h.039c.039 0 .077-.039.077-.039s.039 0 .039-.039c.039 0 .039 0 .039-.039.039 0 .077-.039.116-.039s.077-.039.116-.039c.039 0 .077-.039.077-.039.039 0 .077 0 .077-.039.039 0 .077-.039.077-.039l.039-.039h.039l.039-.039c.039 0 .039 0 .039-.039.039 0 .077-.039.077-.039.039 0 .077-.039.116-.039l.039-.039h.039c.039 0 .039-.039.077-.039s.039 0 .077-.039c.039 0 .039-.039.077-.039h.077s.039-.039.077-.039.039-.039.077-.039c.077-.039.154-.039.231-.077.039 0 .077-.039.116-.039s.193-.077.27-.077c.077-.039.154-.039.231-.077.039 0 .077-.039.116-.039s.077 0 .116-.039.154-.039.231-.077c.039 0 .077 0 .116-.039s.116-.039.154-.077c.077-.039.116-.039.193-.077.039 0 .039-.039.077-.039s.154-.077.193-.116c.039 0 .077-.039.077-.039.077-.039.116-.116.193-.116h.039l.039-.039s.039 0 .039-.039c.039 0 .039 0 .039-.039 0 0 .039 0 .039-.039.039-.039.039-.077.077-.116 0-.039.039-.039.039-.077l.039-.039v-.078h.039s0 .039.039.039c0 0-.039-.039 0-.039v-.078c.039 0 .039 0 .039-.039s.039-.077.039-.077v.039-.078s0-.039.039-.039v-.039h.039l.039-.039s-.039 0-.039-.039c.655-.81.655-.81.655-.848zM24.473 7.595c0 .039 0 .039.039.077v.078l.116.116s.039.039.077.039.039 0 .077.039.077.039.154.039H25.284l.039-.039c.039 0 .077-.039.116-.039l.039-.039h.077s0-.039.039-.039c0 0 .039 0 .039-.039.039 0 .039-.039.077-.039l.116-.116c0-.039.039-.039.039-.077s.039-.039.039-.077c0 0 .039-.039.039-.077s.039-.039.077-.077l.077-.077c0-.039.039-.039.077-.039v-.077l.039-.039v-.039l.039-.039v-.194c0-.038 0-.039.039-.077l.039-.039v-.156c-.039 0-.039-.039 0-.077v-.039c0-.039 0-.039-.039-.039l-.039-.039v-.039l-.039-.039s0-.039-.039-.039v-.039l-.039-.039H25.555c-.039 0-.039 0-.077.039-.039 0-.039 0-.077.039h-.078c-.039 0-.039 0-.077.039h-.039s-.039.039-.077.039h-.039l-.039.039h-.078l-.039.039h-.078v.039l-.039.039s0 .039-.039.039h-.039v.078h-.039l-.039.039v.039l-.039.039v.078c-.039.039-.039.039-.039.077V6.9s0 .077-.039.077v.309c0 .038.039.039.039.039-.116.193-.116.231-.116.27zM11.751 16.424c-.077 0-.077-.077-.116-.077s-.039-.116 0-.116l-.039-.039c0-.039-.039-.039-.039-.077s0-.116-.039-.154l-.077-.077v-.077c-.039 0-.077-.039-.077-.039h-.116c-.077 0-.154 0-.193.039-.116.039-.231.077-.347.154-.039.039-.077.039-.116.077-.039 0-.077.039-.116.077h-.077l-.039.039c-.039.039-.077.039-.077.077-.039 0-.077.077-.116.116s-.077.116-.116.154c-.039.116-.116.231-.154.347 0 .039-.039.077-.039.154 0 .039 0 .154-.039.154.039.077 0 .116 0 .193s-.039.154-.039.231v.27c0 .077-.039.154-.039.231 0 .039-.039.231 0 .27 0 .039-.039.039-.039.077V18.852c0 .116 0 .27-.039.386V19.7c-.077-.077-.039.116 0 .154 0 .039-.039.077-.039.116s.039.077 0 .116-.039.154-.039.193c0 .077-.039.154-.039.231v.232c0 .116-.039.27 0 .386v.464c0 .077-.039.154-.039.231V22.285c0 .038.039.116 0 .154.039.039 0 .077 0 .116s.039.077.039.077c0 .039.039.039.039.077s.039.039.039.077c.039 0 0 .039.039.039l.039.039c.039 0 .077.039.077.039a.415.415 0 0 0 .193.039h.039c.039 0 .039 0 .039-.039h.116s0-.039.039-.039c0 0 .039 0 .039-.039.039 0 .077-.039.077-.039.039-.039.077-.039.154-.077.039 0 .077-.039.077-.077l.077-.077c.039 0 .039-.039.077-.039l.116-.116c.039-.039 0-.077.077-.039s.077.039.077 0c.039-.039 0-.077.039-.116 0 .039.039.039.039.039h.039v-.039c0-.039.039-.077.039-.077 0-.077-.039-.039-.116-.039-.039 0 0 0-.039-.039v-.077c0-.038.039-.077.077-.116v-.116s0-.039.039-.039v-.232s-.039-.039 0-.039c0 0 0-.039.039-.039 0-.039 0-.039.039-.077v-.077s.039-.077 0-.077c0-.039 0-.116-.039-.154 0-.039.039-.077.039-.116V20.815c0-.039.039-.039.039-.077v-.62c0-.039.039-.077.039-.116v-.116c0-.039.039-.039.039-.077v-.193s0-.039.039-.039c0-.039 0-.077.039-.116V19.113l.039-.039c.039-.039 0-.116.039-.154v-.039l.039-.039V18.494c0-.039 0-.077.039-.116V18.031c0-.039.039-.039.039-.077 0-.039 0-.077.039-.116 0-.039.039-.077.039-.116s-.039-.077 0-.116c0 0 .039 0 .039-.039v-.039c0-.039 0-.039.039-.077v-.155l-.039-.039v-.077c0-.038.039-.077.039-.116 0-.039.039-.077.039-.077 0-.039-.039-.039-.039-.077v-.077c0-.039.039-.039.039-.039h-.039c-.039 0-.039-.077-.039-.077-.039-.039-.039-.077-.039-.116v-.154c.039 0 .116 0 .116-.039z"/>
      <path d="M39.471 18.814h-13.34c-2.12 0-3.817 1.696-3.817 3.817s1.696 3.817 3.817 3.817h13.34c2.12 0 3.817-1.696 3.817-3.817s-1.735-3.817-3.817-3.817zm-10.294 5.282c0 .154-.077.27-.193.308-.039 0-.077.039-.116.039s-.077 0-.116-.039c-.116-.039-.193-.154-.193-.308v-1.735c0-.193-.077-.386-.27-.424-.077-.039-.154-.039-.231-.039-.116 0-.193 0-.27.039s-.193.039-.27.116v2.043c0 .154-.077.27-.193.308-.039 0-.077.039-.116.039a.345.345 0 0 1-.347-.347v-1.774c0-.231-.116-.386-.308-.424-.077-.039-.154-.039-.231-.039-.193 0-.308.039-.424.077v2.159c0 .077-.039.193-.116.231-.077.077-.154.116-.231.116s-.154-.039-.231-.116c-.077-.039-.116-.116-.116-.231v-2.468c.154-.077.308-.116.463-.154.193-.039.386-.039.617-.039s.424.039.578.077c.154.039.27.154.347.231.039-.039.116-.077.154-.116.193-.116.424-.193.771-.193.077 0 .154 0 .231.039.154.039.27.077.386.154.039.039.116.077.154.116.077.077.154.193.193.27.039.116.077.231.077.347v1.735zm2.429.155c-.193.154-.424.27-.733.27-.116 0-.193 0-.308-.039-.463-.116-.733-.424-.848-.887-.039-.193-.077-.386-.077-.617s.039-.424.077-.617c.116-.463.424-.81.848-.887.077-.039.193-.039.308-.039.424 0 .733.154.925.424s.308.655.308 1.079c-.039.578-.193 1.041-.501 1.311zm2.93-.193c-.231.27-.617.424-1.041.424-.347 0-.617-.039-.81-.116-.077-.039-.116-.039-.154-.077v-3.817c0-.077.039-.193.116-.231s.154-.116.231-.116c.039 0 .077 0 .116.039.039 0 .077.039.116.077a.54.54 0 0 1 .077.231v1.079c.039 0 .077-.039.116-.039.077-.039.154-.039.27-.077h.193c.077 0 .154 0 .231.039.231.039.424.193.578.386.193.27.308.617.308 1.041.039.501-.116.887-.347 1.157zm1.542.038c0 .193-.154.347-.308.347-.039 0-.077 0-.116-.039-.116-.039-.193-.154-.193-.308v-2.275c0-.193.154-.347.308-.347s.27.077.308.193c0 .039.039.077.039.116v2.313h-.039zm-.193-3.161c-.039 0-.077.039-.154.039-.039 0-.116 0-.154-.039-.116-.039-.231-.154-.231-.308s.077-.27.231-.308c.039 0 .077-.039.154-.039.039 0 .116 0 .154.039.116.039.231.154.231.308s-.077.27-.231.308zm1.157 3.508h-.039c-.193 0-.308-.154-.308-.347v-3.624c0-.193.154-.308.308-.308.193 0 .308.154.308.347v3.624c.039.154-.077.308-.27.308zm3.161-.154c-.039.039-.116.039-.193.077-.193.077-.463.116-.81.116a1.43 1.43 0 0 1-.81-.231c-.077-.039-.154-.116-.193-.154-.231-.27-.386-.655-.386-1.157 0-.733.27-1.234.733-1.426.077-.039.154-.077.231-.077s.193-.039.27-.039c.193 0 .386.039.501.116.231.116.386.27.501.501s.154.54.154.925l-1.812.27c.039.27.116.463.231.617s.308.193.578.193c.231 0 .424-.039.578-.077.039 0 .077-.039.116-.039s.077-.039.116-.039h.077c.077.039.154.116.154.193.077.116.039.193-.039.231z"/>
      <path d="M30.834 21.86c-.463 0-.578.54-.578 1.118 0 .54.116 1.079.578 1.079s.578-.501.578-1.079-.077-1.118-.578-1.118zM39.086 21.86c-.386 0-.656.308-.656 1.041l1.234-.193c0-.617-.193-.848-.578-.848zM33.572 21.822a.841.841 0 0 0-.386.077v2.082a.91.91 0 0 0 .347.077c.54 0 .733-.463.733-1.157-.039-.578-.193-1.079-.694-1.079z"/>
      <path d="M30.834 24.096c-.463 0-.578-.54-.578-1.118s.077-1.118.578-1.118c.463 0 .578.54.578 1.118s-.077 1.118-.578 1.118z"/>
    </symbol>
    <symbol id="icon-Web-apps" viewBox="0 0 43 32">
      <path d="M0 0h42.667v32H0V0z"/>
    </symbol>
    <symbol id="icon-Yelp" viewBox="0 0 65 32">
      <path d="M5.945 24.25h.043l1.95-7.045c.22-.788.68-1.58 1.533-1.385 1.126.262 1.126.705 1.126 1.086 0 .255-.089.576-.243.98L7.166 28.399c-.768 2.127-1.645 3.236-3.66 3.236-1.425 0-2.016-.679-2.016-1.428 0-.828.952-1.245 1.806-1.245h.328c.417 0 .929-.222 1.172-1.183L.394 18.707C.131 17.965 0 17.624 0 17.263c0-.851.121-1.053 1.051-1.408.647-.248 1.448.467 1.645 1.173l3.25 7.221zM31.331 17.281c0-.984.424-1.507 1.333-1.507.87 0 1.336.523 1.336 1.507v.503h.039c.486-1.355 1.678-2.011 3.112-2.011 2.465 0 4.629 1.944 4.629 6.071 0 3.057-1.435 5.919-4.547 5.919-1.353 0-2.367-.59-2.909-1.616h-.039v4.26c0 1.05-.588 1.597-1.477 1.597s-1.477-.547-1.477-1.597V17.28zm6.468.693c-1.783 0-2.456 1.845-2.456 3.862 0 1.822.588 3.961 2.456 3.935 1.95 0 2.433-2.282 2.433-3.935 0-2.09-.798-3.816-2.433-3.862zM24.992 13.489c0-1.067.581-1.623 1.464-1.623s1.464.556 1.464 1.623v13.322c0 1.067-.581 1.62-1.464 1.62s-1.464-.556-1.464-1.62V13.489zM14.812 22.823c0 1.729.942 2.988 2.541 2.988 2.072 0 2.072-1.616 3.184-1.616.66 0 1.129.676 1.129 1.282 0 1.977-2.656 2.898-4.314 2.898-3.841 0-5.292-3.1-5.292-5.956 0-3.819 1.94-6.383 5.197-6.383 3.165 0 4.974 2.673 4.974 5.369 0 1.123-.282 1.414-1.205 1.414l-6.214.003zm4.531-1.769c-.161-1.676-1.172-2.902-2.485-2.902-1.474 0-2.364 1.126-2.689 2.902h5.174zM64.443 5.798a2.032 2.032 0 0 1-1.113 1.123c-.253.109-.525.166-.818.166s-.565-.056-.818-.166a2.097 2.097 0 0 1-1.12-1.123 2.124 2.124 0 0 1-.167-.845 2.084 2.084 0 0 1 .62-1.5 2.113 2.113 0 0 1 1.485-.613c.293 0 .565.056.818.166.253.109.476.258.667.447s.338.411.446.669c.109.258.161.533.161.831 0 .301-.053.583-.161.845zm-.309-1.564c-.092-.225-.217-.424-.371-.59a1.687 1.687 0 0 0-1.242-.54c-.247 0-.476.05-.689.146-.214.096-.397.229-.555.394s-.283.364-.374.59a1.9 1.9 0 0 0-.138.715 1.928 1.928 0 0 0 .512 1.318c.158.169.345.305.561.401a1.688 1.688 0 0 0 1.372 0c.213-.096.394-.229.552-.397.154-.166.279-.361.371-.59.092-.225.138-.467.138-.725 0-.252-.046-.494-.138-.722zm-1.021 1.954c-.062-.083-.125-.282-.181-.603-.033-.162-.092-.278-.178-.344s-.21-.099-.374-.099h-.286v1.047h-.306V3.821c.108-.013.206-.023.299-.036s.197-.02.318-.02c.164 0 .306.017.423.05.118.036.21.076.28.129.144.106.217.268.217.48a.544.544 0 0 1-.138.388.779.779 0 0 1-.328.199v.02c.217.036.351.229.408.576.033.182.059.315.085.401s.05.146.075.185h-.315V6.19zm-.243-2.033c-.092-.096-.26-.146-.499-.146-.062 0-.118 0-.161.007a1 1 0 0 0-.115.013v.888h.295c.164 0 .309-.033.434-.099s.184-.182.184-.344a.45.45 0 0 0-.138-.318zM53.646 14.896c-.391.397-.059 1.12-.059 1.12l2.938 4.952s.483.652.9.652c.42 0 .834-.348.834-.348l2.324-3.352s.233-.424.24-.792c.01-.527-.778-.672-.778-.672l-5.502-1.782s-.538-.142-.896.222zM53.366 12.397c.282.48 1.057.341 1.057.341l5.489-1.62s.748-.308.853-.715c.105-.411-.124-.904-.124-.904l-2.623-3.117s-.227-.394-.699-.434c-.519-.043-.84.59-.84.59l-3.102 4.922c.007.007-.269.497-.01.937zM50.772 10.48c.647-.159.748-1.106.748-1.106l-.043-7.883s-.098-.974-.532-1.235c-.68-.417-.88-.199-1.077-.169l-4.557 1.709s-.446.149-.68.523c-.332.533.338 1.312.338 1.312l4.737 6.512c0-.003.469.487 1.064.338zM49.647 13.671c.016-.609-.722-.974-.722-.974L44.027 10.2s-.726-.301-1.077-.093c-.269.162-.509.454-.532.709l-.318 3.961s-.049.686.128 1c.249.444 1.07.136 1.07.136l5.719-1.275c.22-.149.611-.162.63-.967zM51.072 15.81c-.492-.255-1.077.272-1.077.272l-3.828 4.253s-.479.649-.355 1.05c.115.374.305.56.571.692l3.844 1.226s.466.096.821-.007c.502-.146.41-.937.41-.937l.085-5.757c-.007-.003-.026-.56-.473-.792z"/>
    </symbol>
  </defs>
</svg>